<svg width="1881" height="467" viewBox="0 0 1881 467" fill="none" xmlns="http://www.w3.org/2000/svg">
<g clip-path="url(#clip0_189_5053)">
<path d="M1881 46.6629V420.109C1880.98 445.456 1861.44 466.113 1837.17 466.746C1836.78 466.771 1836.39 466.771 1836.01 466.771H1032.02V0.00113247H1836.01C1860.81 0.00113247 1881 20.9009 1881 46.6629Z" fill="#FBB03F"/>
<path d="M1032.02 -5.69242e-05V466.749H45.8315C23.6782 466.749 5.22802 450.728 0.920654 429.487V429.462C0.628838 427.95 0.386371 426.409 0.242518 424.847C0.069895 423.285 0 421.698 0 420.087V46.637V46.5877C0 45.0259 0.069895 43.4641 0.242518 41.9515C0.460353 39.5554 0.875443 37.2373 1.43441 34.9891C1.82076 33.5012 2.26053 32.038 2.77018 30.62C9.21479 12.7453 26.062 -5.69242e-05 45.8315 -5.69242e-05H1032.02Z" fill="#414142"/>
<path d="M434.793 116.115V219.398C434.793 251.699 408.871 278.118 376.072 278.118H268.766V238.76H268.536C277.406 237.088 284.056 229.393 284.056 220.076V184.836H289.621L301.113 165.202C314.323 163.164 325.765 166.649 331.375 168.955C333.685 175.288 339.743 179.814 346.895 179.814H380.417C389.418 179.814 396.791 172.53 396.791 163.39V129.868C396.791 120.822 389.418 113.493 380.417 113.493H346.895C339.743 113.493 333.73 118.06 331.466 124.348C325.81 126.613 314.368 130.139 301.113 128.105L289.621 108.516H206.379C206.379 108.516 109.431 113.448 109.431 184.836H115.312C115.312 184.836 123.861 160.225 158.02 144.841C159.964 144.163 206.379 128.105 206.379 158.186V184.836H211.99V220.076C211.99 229.393 218.64 237.088 227.46 238.76V278.118H141.144C136.755 278.118 129.426 277.169 122.053 276.174V409.312H82.4688V57.3947H376.072C408.871 57.3947 434.793 83.8143 434.793 116.115Z" fill="#FBB03C"/>
<path d="M678.237 125.426V165.556H518.684C508.409 165.556 499.597 174.368 499.597 184.644V409.288H459.466V184.644C459.466 151.853 485.894 125.426 518.684 125.426H678.237Z" fill="#FBB03F"/>
<path d="M955.755 350.049C955.755 360.365 947.433 369.14 936.664 369.14H766.338C756.067 369.14 747.247 360.365 747.247 350.049V184.655C747.247 174.384 756.067 165.564 766.338 165.564H936.664C947.433 165.564 955.755 174.384 955.755 184.655V350.049ZM936.664 125.437H766.338C733.54 125.437 707.12 151.856 707.12 184.655V350.049C707.12 382.847 733.54 409.312 766.338 409.312H936.664C969.915 409.312 996.379 382.847 996.379 350.049V184.655C996.379 151.856 969.915 125.437 936.664 125.437Z" fill="#FBB03F"/>
<path d="M1393.49 57.1606V96.8064H1111.58V213.29H1338.18V253.421H1111.58V409.547H1071.94V57.1606H1393.49Z" fill="#414142"/>
<path d="M1798.04 125.419L1679.6 264.903L1798.53 409.281H1745.68L1653.18 295.736C1624.79 330.483 1590.04 374.046 1561.16 409.281H1508.31L1626.75 264.903L1508.31 125.419H1561.16L1653.18 233.09C1680.59 200.789 1717.29 158.209 1745.68 125.419H1798.04Z" fill="#414142"/>
<path d="M1468.42 97.2908H1428.29V57.16H1468.42V97.2908Z" fill="#414142"/>
<path d="M1428.29 125.42H1468.42V409.283H1428.29V125.42Z" fill="#414142"/>
</g>
<defs>
<clipPath id="clip0_189_5053">
<rect width="1881" height="466.771" fill="white"/>
</clipPath>
</defs>
</svg>
