<?xml version="1.0" encoding="UTF-8" standalone="no"?>
<!-- Created with Inkscape (http://www.inkscape.org/) -->

<svg
   width="210mm"
   height="297mm"
   viewBox="0 0 210 297"
   version="1.1"
   id="svg1"
   inkscape:export-filename="smart-logo.jpg"
   inkscape:export-xdpi="96"
   inkscape:export-ydpi="96"
   xmlns:inkscape="http://www.inkscape.org/namespaces/inkscape"
   xmlns:sodipodi="http://sodipodi.sourceforge.net/DTD/sodipodi-0.dtd"
   xmlns="http://www.w3.org/2000/svg"
   xmlns:svg="http://www.w3.org/2000/svg">
  <sodipodi:namedview
     id="namedview1"
     pagecolor="#505050"
     bordercolor="#eeeeee"
     borderopacity="1"
     inkscape:showpageshadow="0"
     inkscape:pageopacity="0"
     inkscape:pagecheckerboard="0"
     inkscape:deskcolor="#505050"
     inkscape:document-units="mm">
    <inkscape:page
       x="0"
       y="0"
       width="210"
       height="297"
       id="page2"
       margin="0"
       bleed="0" />
  </sodipodi:namedview>
  <defs
     id="defs1">
    <clipPath
       clipPathUnits="userSpaceOnUse"
       id="clipPath5-9-6">
      <path
         d="M 0,0 H 7680 V 4320 H 0 Z"
         transform="matrix(0.25000001,0,0,0.25000001,405.00099,-758.37519)"
         clip-rule="evenodd"
         id="path5-3-1" />
    </clipPath>
    <clipPath
       clipPathUnits="userSpaceOnUse"
       id="clipPath7-7-8">
      <path
         d="M 0,0 H 7680 V 4320 H 0 Z"
         transform="matrix(0.25000001,0,0,0.25000001,636.33694,-760.00622)"
         clip-rule="evenodd"
         id="path7-0-7" />
    </clipPath>
    <clipPath
       clipPathUnits="userSpaceOnUse"
       id="clipPath9-1-9">
      <path
         d="M 0,0 H 7680 V 4320 H 0 Z"
         transform="matrix(0.25000001,0,0,0.25000001,1049.6309,-757.96794)"
         clip-rule="evenodd"
         id="path9-2-2" />
    </clipPath>
    <clipPath
       clipPathUnits="userSpaceOnUse"
       id="clipPath11-2-0">
      <path
         d="M 0,0 H 7680 V 4320 H 0 Z"
         transform="matrix(0.25000001,0,0,0.25000001,1283.4092,-758.37519)"
         clip-rule="evenodd"
         id="path11-9-2" />
    </clipPath>
    <clipPath
       clipPathUnits="userSpaceOnUse"
       id="clipPath13-5-3">
      <path
         d="M 0,0 H 7680 V 4320 H 0 Z"
         transform="matrix(0.25000001,0,0,0.25000001,1492.2989,-799.98879)"
         clip-rule="evenodd"
         id="path13-6-7" />
    </clipPath>
  </defs>
  <g
     inkscape:label="Layer 1"
     inkscape:groupmode="layer"
     id="layer1">
    <path
       id="rect1"
       style="fill:#6b617c;fill-opacity:1;stroke-width:0.251789"
       d="m 0.07617187,74.184435 c 0,58.923155 0,117.846295 0,176.769445 70.11627213,0 140.23253813,0 210.34881813,0 0,-59.02713 0,-118.05425 0,-177.081375 -70.11628,0 -140.232546,0 -210.34881813,0 0,0.10398 0,0.20795 0,0.31193 z" />
    <g
       id="g1"
       transform="matrix(2.4934157,0,0,2.4934157,-118.6036,-288.61605)"
       style="fill:#ffffff;fill-opacity:1">
      <path
         id="path4"
         d="m 526.26257,-692.38745 c -0.26635,0 -0.39807,-0.16583 -0.39807,-0.49799 0,-0.96197 -0.0673,-1.76745 -0.19903,-2.41485 -0.13367,-0.64734 -0.2995,-1.10303 -0.4986,-1.36939 -0.53076,-0.53027 -1.52692,-0.79663 -2.98755,-0.79663 h -10.55484 c -1.16302,0 -1.9592,0.29126 -2.39044,0.87134 -0.43225,0.58142 -0.64682,1.68542 -0.64682,3.3114 0,0.4317 0.0409,0.75525 0.12387,0.97076 0.0829,0.21613 0.22437,0.37372 0.42343,0.47321 0.19904,0.0996 0.46442,0.15765 0.79614,0.17419 0.33176,0.017 0.74747,0.0419 1.24506,0.0747 0.16586,0 0.3317,0.0336 0.49844,0.0995 0,0.0668 0.45572,0.10828 1.36893,0.12433 0.91235,0.0171 2.23242,0.0587 3.95837,0.12445 0.53077,0.0337 1.0459,0.0498 1.54346,0.0498 0.53082,0 1.09571,0.0175 1.69287,0.0502 1.42737,0 2.64698,0.20051 3.65967,0.60096 1.0119,0.40106 1.86755,0.88501 2.56415,1.45282 0.9621,0.76831 1.66846,1.80304 2.11627,3.10559 0.44788,1.30261 0.67224,2.85534 0.67224,4.65845 0,4.5086 -2.37378,6.76245 -7.12048,6.76245 h -10.50516 c -1.19522,0 -2.24994,-0.15723 -3.16223,-0.47327 -0.91321,-0.31464 -1.61865,-0.80444 -2.11627,-1.46887 -0.89609,-1.29431 -1.34497,-3.55152 -1.34497,-6.77124 0,-0.29901 0.13269,-0.44837 0.39908,-0.44837 h 2.73825 c 0.29855,0 0.44888,0.14936 0.44888,0.44837 0,1.99133 0.21457,3.26947 0.64682,3.83392 0.16586,0.33221 0.48105,0.55609 0.94644,0.6723 0.46448,0.11658 1.04492,0.17408 1.74255,0.17408 h 10.1568 c 1.29474,0 2.23243,-0.28534 2.81385,-0.85657 0.57959,-0.57129 0.87133,-1.69629 0.87133,-3.37488 0,-0.9743 -0.33276,-1.74652 -0.99621,-2.31781 -0.66443,-0.57074 -1.51813,-1.00732 -2.56397,-1.30927 -1.04602,-0.30206 -2.1914,-0.49572 -3.43548,-0.57959 -1.24494,-0.0839 -2.44892,-0.12585 -3.61005,-0.12585 h -1.643 c -1.09565,0 -2.14939,-0.0327 -3.16224,-0.0996 -1.01269,-0.0663 -1.90051,-0.24927 -2.66351,-0.54785 -1.06253,-0.36487 -1.76797,-1.17029 -2.11624,-2.41473 -0.34882,-1.24512 -0.5235,-2.71393 -0.5235,-4.40674 0,-2.29041 0.71372,-4.11536 2.14212,-5.47705 1.36011,-0.9624 2.92026,-1.44391 4.6803,-1.44391 h 9.90802 c 2.65582,0 4.56433,0.58099 5.72632,1.74249 1.22735,1.42798 1.8421,3.7345 1.8421,6.92108 0,0.33216 -0.13269,0.49799 -0.39813,0.49799 h -2.68897 z"
         style="fill:#ffffff;fill-opacity:1;fill-rule:nonzero;stroke:none"
         transform="matrix(0.35277776,0,0,0.35277776,-115.97604,423.37828)"
         clip-path="url(#clipPath5-9-6)" />
      <path
         id="path6"
         d="m 808.63458,-676.4917 c -0.29864,0 -0.44781,-0.1322 -0.44781,-0.39862 0,-0.53076 0.0155,-1.26984 0.0497,-2.21576 0.0322,-0.94592 0.0995,-2.09875 0.19904,-3.4602 0.0663,-1.3274 0.12402,-2.47242 0.1737,-3.43592 0.0498,-0.96203 0.0752,-1.75866 0.0752,-2.38989 0,-3.45197 -0.44794,-6.05749 -1.34449,-7.81714 -0.46539,-1.02838 -1.12884,-1.78406 -1.99133,-2.26562 -0.86352,-0.48047 -1.8919,-0.72193 -3.0871,-0.72193 h -5.72625 c -2.65583,0 -4.51453,0.97956 -5.57703,2.93775 -0.39807,0.79663 -0.63031,1.80945 -0.69665,3.03735 -0.0673,1.22839 -0.0996,2.78845 -0.0996,4.6803 v 8.36499 c 0,1.92554 0.0167,3.02069 0.0499,3.28607 0,0.26642 -0.14935,0.39862 -0.44787,0.39862 h -2.78858 c -0.29852,0 -0.44775,-0.1322 -0.44775,-0.39862 v -13.94147 c 0,-1.32739 -0.042,-2.4226 -0.12488,-3.28613 -0.0829,-0.86291 -0.37372,-1.62592 -0.87128,-2.29034 -0.96301,-1.26117 -1.87622,-2.04169 -2.7387,-2.34015 -0.46546,-0.1659 -0.88013,-0.2815 -1.24506,-0.34888 -0.36493,-0.0659 -0.67999,-0.0995 -0.94537,-0.0995 h -5.87561 c -1.26154,0 -2.34058,0.24927 -3.23627,0.74683 -0.89667,0.49805 -1.57678,1.2948 -2.0412,2.38995 -0.46539,0.96356 -0.78931,2.08362 -0.97174,3.36127 -0.18244,1.27808 -0.27319,2.79675 -0.27319,4.55591 0,0.66394 0.008,1.48596 0.0244,2.46454 0.0167,0.97961 0.0575,2.09973 0.12488,3.36071 0.0663,1.29474 0.11615,2.39881 0.14929,3.31098 0.0322,0.91382 0.0497,1.61828 0.0497,2.11627 0,0.26642 -0.13269,0.39862 -0.39807,0.39862 h -3.28601 c -0.20001,0 -0.29956,-0.1322 -0.29956,-0.39862 v -15.38544 c 0,-1.59326 0.22443,-3.06225 0.67218,-4.40674 0.44885,-1.34399 1.0957,-2.51428 1.94263,-3.50988 0.84588,-0.99579 1.87426,-1.77533 3.08709,-2.34021 1.21082,-0.56397 2.56403,-0.84644 4.05787,-0.84644 h 6.62188 c 0.99616,0 1.87531,0.0829 2.63916,0.24878 0.763,0.16638 1.44409,0.46533 2.0412,0.89624 0,0.0336 0.0332,0.0497 0.0996,0.0497 0.56396,0.36585 1.07031,0.80536 1.5191,1.31958 0.44782,0.51514 0.8537,1.10401 1.21955,1.76746 0.63031,-1.49377 1.49377,-2.53918 2.58954,-3.13672 0.59704,-0.43091 1.2771,-0.72986 2.04107,-0.89624 0.76294,-0.16589 1.62549,-0.24878 2.58948,-0.24878 h 7.21906 c 2.35626,0 4.41491,0.79657 6.17413,2.38989 0.8966,0.92981 1.59326,2.00892 2.09186,3.23633 0.49762,1.2284 0.74633,2.58899 0.74633,4.08277 v 16.77972 c 0,0.26642 -0.13269,0.39862 -0.39807,0.39862 h -2.888 z"
         style="fill:#ffffff;fill-opacity:1;fill-rule:nonzero;stroke:none"
         transform="matrix(0.35277776,0,0,0.35277776,-197.58622,423.95366)"
         clip-path="url(#clipPath7-7-8)" />
      <path
         id="path8"
         d="m 1253.5459,-691.3327 c 0.032,0.33221 0.05,0.64734 0.05,0.94586 v 0.84643 4.53101 c -0.1005,2.25775 -0.2499,4.09155 -0.449,5.50189 -0.1989,1.41132 -0.5395,2.51428 -1.0205,3.31104 -0.4809,0.79657 -1.162,1.33661 -2.0411,1.6181 -0.88,0.28241 -2.0342,0.42352 -3.4607,0.42352 h -12.1492 c -4.1164,0 -6.1742,-2.32312 -6.1742,-6.97082 v -2.48944 c 0,-1.52643 0.1416,-2.79627 0.4235,-3.80908 0.282,-1.01221 0.7797,-1.80018 1.4938,-2.36493 0.7133,-0.56397 1.6839,-0.96265 2.9123,-1.19526 1.2284,-0.23181 2.7721,-0.34832 4.6308,-0.34832 h 11.9002 l -0.05,-0.64746 c -0.1,-1.69281 -0.482,-2.93769 -1.1455,-3.73438 -0.033,0 -0.083,-0.0326 -0.1491,-0.0995 -0.7641,-0.76294 -1.7427,-1.14538 -2.9378,-1.14538 h -8.1157 c -2.8882,0 -4.3322,1.27862 -4.3322,3.83398 0,0.33216 -0.1326,0.49799 -0.398,0.49799 h -2.888 c -0.2985,0 -0.4478,-0.16583 -0.4478,-0.49799 v -0.59717 c 0,-2.48993 0.7961,-4.39788 2.3894,-5.72619 0.6634,-0.56397 1.4519,-0.9787 2.365,-1.24451 0.9133,-0.26544 1.8509,-0.39862 2.8139,-0.39862 h 8.9119 c 2.4899,0.0337 4.4316,0.76398 5.8258,2.19092 1.3943,1.42731 2.0919,3.73431 2.0919,6.9209 l -0.05,0.64746 z m -3.8589,5.9497 c 0.016,-0.67956 0.024,-1.16986 0.024,-1.46844 h -14.1903 c -1.1953,0 -1.9913,0.16632 -2.3905,0.49762 -0.8634,0.3659 -1.2947,1.29474 -1.2947,2.78851 v 1.9914 c 0,2.22442 1.2284,3.33624 3.6852,3.33624 h 10.2067 c 2.5561,0 3.8343,-1.46063 3.8343,-4.38171 0.066,-1.16163 0.1073,-2.08265 0.1249,-2.76362 z"
         style="fill:#ffffff;fill-opacity:1;fill-rule:nonzero;stroke:none"
         transform="matrix(0.35277776,0,0,0.35277776,-343.38714,423.23461)"
         clip-path="url(#clipPath9-1-9)" />
      <path
         id="path10"
         d="m 1512.2185,-690.39551 c -0.2654,0 -0.3982,-0.16589 -0.3982,-0.49811 0,-4.38177 -1.7759,-6.57269 -5.3274,-6.57269 h -6.8716 c -1.8596,0 -3.2197,0.54785 -4.0822,1.64301 -0.8645,1.0957 -1.2947,2.73883 -1.2947,4.92968 v 15.88312 c 0,0.29901 -0.1668,0.44837 -0.4985,0.44837 h -2.7876 c -0.2332,0 -0.3492,-0.14936 -0.3492,-0.44837 v -15.93286 c 0,-1.56006 0.116,-2.82947 0.3492,-3.80908 0.2311,-0.97864 0.4301,-1.65088 0.5971,-2.01685 0,-0.0326 0.017,-0.0658 0.05,-0.0995 0,-0.0658 0.017,-0.11561 0.05,-0.14917 0.6636,-1.46009 1.5437,-2.58069 2.6394,-3.36072 1.0947,-0.77967 2.1738,-1.17035 3.2363,-1.17035 h 9.2114 c 2.6548,0 4.7623,0.88006 6.3233,2.63916 1.5935,1.85919 2.3896,4.53064 2.3896,8.01623 0,0.33222 -0.1494,0.49811 -0.448,0.49811 h -2.7883 z"
         style="fill:#ffffff;fill-opacity:1;fill-rule:nonzero;stroke:none"
         transform="matrix(0.35277776,0,0,0.35277776,-425.85892,423.37828)"
         clip-path="url(#clipPath11-2-0)" />
      <path
         id="path12"
         d="m 1747.2472,-723.79382 c 0.033,0 0.05,0.0497 0.05,0.14923 0,1.22839 -0.1912,2.31524 -0.5728,3.26178 -0.3814,0.94592 -1.0037,1.80053 -1.8664,2.56396 -0.6312,0.56494 -1.3445,0.97962 -2.1416,1.24451 -0.7962,0.26636 -1.6597,0.39868 -2.5885,0.39868 h -5.5272 c -1.5602,0 -2.8383,-0.35632 -3.8335,-1.07043 -0.9961,-0.71375 -1.7766,-1.76795 -2.3406,-3.16162 -0.9298,-2.05835 -1.3942,-5.1117 -1.3942,-9.16175 0,-1.1615 0.05,-2.78845 0.1492,-4.87988 0.066,-0.96198 0.1073,-1.75855 0.1249,-2.38983 0.017,-0.62989 0.024,-1.1778 0.024,-1.64313 h -1.9417 c -0.2663,0 -0.398,-0.16589 -0.398,-0.49805 v -3.83343 c 0,-0.29907 0.1317,-0.4483 0.398,-0.4483 h 1.9417 v -4.58088 c 0,-0.26538 0.1503,-0.39807 0.4487,-0.39807 h 2.8383 c 0.2644,0 0.398,0.13269 0.398,0.39807 v 4.58088 h 13.8421 c 0.3308,0 0.4977,0.14923 0.4977,0.4483 v 3.83343 c 0,0.33216 -0.1669,0.49805 -0.4977,0.49805 h -13.8421 v 12.59705 c 0,1.89233 0.2812,3.29492 0.846,4.20764 0.564,0.91321 1.4772,1.36938 2.7388,1.36938 h 5.3779 c 0.8625,0 1.6255,-0.23218 2.2899,-0.69714 0.7973,-0.53088 1.1953,-1.41083 1.1953,-2.63922 0,-0.29853 0.1317,-0.44782 0.3981,-0.44782 h 3.0372 c 0.1,0 0.1659,0.0171 0.1991,0.0497 l 0.1492,0.2489 z"
         style="fill:#ffffff;fill-opacity:1;fill-rule:nonzero;stroke:none"
         transform="matrix(0.35277776,0,0,0.35277776,-499.55057,438.05863)"
         clip-path="url(#clipPath13-5-3)" />
    </g>
  </g>
</svg>
