<?xml version="1.0" encoding="utf-8"?>
<!-- Generator: Adobe Illustrator 26.0.1, SVG Export Plug-In . SVG Version: 6.00 Build 0)  -->
<svg version="1.1" id="Layer_1" xmlns="http://www.w3.org/2000/svg" xmlns:xlink="http://www.w3.org/1999/xlink" x="0px" y="0px"
	 viewBox="0 0 839.3 235.4" style="enable-background:new 0 0 839.3 235.4;" xml:space="preserve">
<style type="text/css">
	.st0{fill:#FF9933;stroke:#000000;stroke-miterlimit:10;}
	.st1{fill:#5C6269;}
	.st2{fill:#FF9933;}
	.st3{fill:#FFFFFF;}
	.st4{fill:url(#SVGID_1_);}
	.st5{fill:url(#SVGID_00000091007825135952771640000011854011706967782289_);}
	.st6{fill:url(#SVGID_00000044894116031331228600000006183009047415749260_);}
	.st7{fill:url(#SVGID_00000107570796384662867040000001389570460281018282_);}
	.st8{fill:url(#SVGID_00000044167063160676063280000016803048237344658866_);}
	.st9{fill:url(#SVGID_00000182501427082820367290000005458777744024109230_);}
	.st10{fill:url(#SVGID_00000013167205522224976530000012053450153301960888_);}
	.st11{fill:url(#SVGID_00000074423596167635659120000002834085190182815376_);}
	.st12{fill:url(#SVGID_00000060011726478922297000000014571165401193515448_);}
	.st13{fill:url(#SVGID_00000064352037102721041580000006975829712353371271_);}
	.st14{fill:url(#SVGID_00000169528575891909126880000010344857090774445240_);}
	.st15{fill:url(#SVGID_00000076595100731174010170000009831601178182609561_);}
</style>
<rect x="849.5" y="-1025.7" class="st0" width="54.7" height="62.7"/>
<image style="overflow:visible;" width="1366" height="768" xlink:href="EFCCFEEC.jpg"  transform="matrix(1 0 0 1 254.1413 -1899.0988)">
</image>
<rect x="849.5" y="-805.3" class="st1" width="420.9" height="595.3"/>
<rect x="1270.4" y="-805.3" class="st2" width="420.9" height="595.3"/>
<g>
	<polygon class="st3" points="1572.2,-690.4 1480.9,-599 1389.5,-507.7 1389.5,-690.4 1429,-650.9 1408.4,-614.5 1451.5,-657.7 
		1484.2,-690.4 	"/>
	<linearGradient id="SVGID_1_" gradientUnits="userSpaceOnUse" x1="1396.4177" y1="-619.8598" x2="1431.7358" y2="-699.1856">
		<stop  offset="0" style="stop-color:#B3B3B3"/>
		<stop  offset="0.1084" style="stop-color:#C4C4C4"/>
		<stop  offset="0.3178" style="stop-color:#DEDEDE"/>
		<stop  offset="0.5333" style="stop-color:#F0F0F0"/>
		<stop  offset="0.7566" style="stop-color:#FBFBFB"/>
		<stop  offset="1" style="stop-color:#FFFFFF"/>
	</linearGradient>
	<polygon class="st4" points="1451.5,-690.4 1451.5,-657.7 1408.4,-614.5 1429,-650.9 1389.5,-690.4 	"/>
	<polygon class="st3" points="1572.2,-507.7 1484.5,-507.7 1437,-555.2 1480.9,-599 	"/>
	
		<linearGradient id="SVGID_00000089559984104068120150000017621756456602079647_" gradientUnits="userSpaceOnUse" x1="1437.0396" y1="-555.1984" x2="1437.0396" y2="-555.1984">
		<stop  offset="0" style="stop-color:#864433"/>
		<stop  offset="0.3195" style="stop-color:#B76733"/>
		<stop  offset="0.6169" style="stop-color:#DE8233"/>
		<stop  offset="0.8536" style="stop-color:#F69333"/>
		<stop  offset="1" style="stop-color:#FF9933"/>
	</linearGradient>
	<path style="fill:url(#SVGID_00000089559984104068120150000017621756456602079647_);" d="M1437-555.2"/>
	
		<linearGradient id="SVGID_00000078767643731533138200000008012435028854026132_" gradientUnits="userSpaceOnUse" x1="1447.5605" y1="-582.374" x2="1488.6016" y2="-582.374">
		<stop  offset="0" style="stop-color:#B3B3B3"/>
		<stop  offset="0.1084" style="stop-color:#C4C4C4"/>
		<stop  offset="0.3178" style="stop-color:#DEDEDE"/>
		<stop  offset="0.5333" style="stop-color:#F0F0F0"/>
		<stop  offset="0.7566" style="stop-color:#FBFBFB"/>
		<stop  offset="1" style="stop-color:#FFFFFF"/>
	</linearGradient>
	<polyline style="fill:url(#SVGID_00000078767643731533138200000008012435028854026132_);" points="1447.6,-565.7 1480.9,-599 
		1480.9,-599 1488.6,-591.3 	"/>
</g>
<g>
	<g>
		<g>
			<path class="st3" d="M1389.2-404.3l-0.4,0.4c-2-0.1-4.4-0.2-7.2-0.2c-2.6,0-5.2,0.1-7.8,0.2c-1.6-3-5.6-8-12-15
				c-3.3-3.7-5.4-5.8-6.4-6.5l0.3,15.1c0.1,1.1,0.4,1.9,1,2.1c0.7,0.4,2.4,0.6,5.3,0.7l0.5,0.4v2.7l-0.4,0.4
				c-2.8-0.2-6.8-0.3-12.1-0.3c-5.3,0-9.3,0.1-12.1,0.3l-0.4-0.4v-2.7l0.4-0.4c2.8-0.1,4.6-0.3,5.3-0.7c0.6-0.3,0.9-1,1-2.1
				c0.2-3.8,0.3-10.5,0.3-20.1v-14.8c0-6.2-0.1-11.2-0.3-15c-0.1-1.1-0.4-1.8-1-2.1c-0.6-0.3-2.3-0.6-5.1-0.6l-0.4-0.5v-2.4l0.4-0.5
				c5.7-0.6,11.4-1.8,17.1-3.7l0.9,0.5c0,0.8,0,2.3-0.1,4.4c-0.3,7-0.4,14.8-0.4,23.4v14.4l4.4-3.6c1.9-1.6,4.6-4.2,8-7.8l4.6-4.9
				c0.9-0.9,1.5-1.7,2-2.4c2.5,0.1,4.5,0.1,6.1,0.1c2,0,3.8,0,5.3-0.1l0.4,0.4v2.6l-0.4,0.4l-3.2,0.2c-1.3,0.1-2.6,0.6-4,1.5
				c-0.5,0.4-1.6,1.3-3.4,2.6l-3.7,3l-1.3,1.2l-3.8,3.4l9.4,11c6,7,9.6,10.8,10.8,11.4c0.6,0.3,1.3,0.4,1.9,0.4l0.4,0.5V-404.3z"/>
			<path class="st3" d="M1433.3-404.4l-0.5,0.5c-2.5-0.1-5.3-0.2-8.5-0.2c-2.5,0-4.9,0.1-7.2,0.2l-0.4-0.5l0.4-5.9l-8.6,6.5
				c-0.7,0.5-1.6,0.8-2.9,0.9c-0.5,0.1-1.1,0.1-1.8,0.1c-3.3,0-5.8-1-7.5-3c-1.8-2-2.6-4.7-2.6-8.2c0-4.6,1.5-7.8,4.4-9.8
				c3.1-2.1,9.5-4,19-5.7c0-4.7-1.2-7.8-3.7-9.4c-1.5-1-3.3-1.5-5.4-1.5c-2.3,0-4.1,0.5-5.4,1.4l-1.7,4.1l-0.6,0.3l-2.3-0.5
				l-0.3-0.6l0.2-5.2c4.9-3.6,8.5-5.6,11-6.1c1-0.2,2.4-0.3,4-0.3c5.8,0,9.9,1.5,12.4,4.5c1.8,2.2,2.7,5.6,2.7,10.2
				c0,1.1,0,2.9-0.1,5.4c-0.1,4.1-0.2,6.9-0.2,8.3c0,4.4,0.1,7.3,0.2,8.5c0.1,1.2,0.5,2,1,2.3c0.5,0.3,1.8,0.5,3.9,0.6l0.4,0.5
				V-404.4z M1417.1-414.7v-10.9c-4.9,1.1-8.1,2.2-9.8,3.4c-1.7,1.2-2.5,3.1-2.5,5.6c0,4,1.8,6,5.3,6
				C1413-410.5,1415.3-411.9,1417.1-414.7z"/>
			<path class="st3" d="M1470.5-446.8l-0.3,7.9c0,1.3-0.1,2.8-0.2,4.4l-1.9,0.6c-1.4-2-3.3-3-5.7-3c-2.2,0-4,0.9-5.5,2.6
				c-0.9,1.1-1.3,2.7-1.3,4.8v10.3c0,2.1,0.1,5.1,0.3,9c0.1,1.1,0.4,1.8,0.9,2.1c0.6,0.3,2.6,0.5,6.1,0.7l0.4,0.4v2.7l-0.4,0.4
				c-4.3-0.2-8.6-0.3-12.9-0.3c-5.3,0-9.3,0.1-12.1,0.3l-0.4-0.4v-2.7l0.4-0.4c2.8-0.1,4.6-0.3,5.3-0.7c0.6-0.3,0.9-1,1-2.1
				c0.2-3.8,0.3-7.9,0.3-12.3v-6.3c0-5.9-0.2-9.3-0.7-10.2c-0.3-0.6-0.9-1-1.9-1.1c-0.4-0.1-1.6-0.1-3.8-0.2l-0.4-0.4v-2.5l0.4-0.5
				c5.3-0.5,10.9-1.7,16.7-3.7l1,0.6l-0.1,8.7c1.8-2.1,4-4.6,6.6-7.4c1.2-1.2,2.9-1.8,4.9-1.8
				C1468.6-447.3,1469.6-447.1,1470.5-446.8z"/>
			<path class="st3" d="M1498.2-404.3l-0.4,0.4c-2.8-0.2-6.8-0.3-12.1-0.3c-5.3,0-9.3,0.1-12.1,0.3l-0.4-0.4v-2.7l0.4-0.4
				c2.8-0.1,4.6-0.3,5.3-0.7c0.6-0.3,0.9-1,1-2.1c0.2-3.8,0.3-7.9,0.3-12.3v-6.3c0-5.7-0.2-9.1-0.7-10.2c-0.2-0.6-0.9-1-1.9-1.1
				c-0.4-0.1-1.6-0.1-3.8-0.2l-0.4-0.4v-2.5l0.4-0.5c5.7-0.5,11.3-1.7,17.1-3.7l0.9,0.6c-0.4,5.4-0.6,9.9-0.6,13.6v14.1
				c0,2.1,0.1,5.1,0.3,9c0.1,1.1,0.4,1.9,1,2.1c0.7,0.4,2.4,0.6,5.3,0.7l0.5,0.4V-404.3z M1492.1-461.9c0,1.9-0.7,3.5-2,4.8
				c-1.3,1.3-2.9,2-4.8,2c-1.9,0-3.5-0.7-4.8-2c-1.3-1.3-2-3-2-4.8c0-1.9,0.7-3.6,2-4.9c1.3-1.3,2.9-2,4.8-2c1.8,0,3.4,0.7,4.7,2
				C1491.4-465.5,1492.1-463.8,1492.1-461.9z"/>
			<path class="st3" d="M1543.8-404.4l-0.5,0.5c-2.5-0.1-5.3-0.2-8.5-0.2c-2.5,0-4.9,0.1-7.2,0.2l-0.4-0.5l0.4-5.9l-8.6,6.5
				c-0.7,0.5-1.6,0.8-2.9,0.9c-0.5,0.1-1.1,0.1-1.8,0.1c-3.3,0-5.8-1-7.5-3c-1.8-2-2.6-4.7-2.6-8.2c0-4.6,1.5-7.8,4.4-9.8
				c3.1-2.1,9.5-4,19-5.7c0-4.7-1.2-7.8-3.7-9.4c-1.5-1-3.3-1.5-5.4-1.5c-2.3,0-4.1,0.5-5.4,1.4l-1.7,4.1l-0.6,0.3l-2.3-0.5
				l-0.3-0.6l0.2-5.2c4.9-3.6,8.5-5.6,11-6.1c1-0.2,2.4-0.3,4-0.3c5.8,0,9.9,1.5,12.4,4.5c1.8,2.2,2.7,5.6,2.7,10.2
				c0,1.1,0,2.9-0.1,5.4c-0.1,4.1-0.2,6.9-0.2,8.3c0,4.4,0.1,7.3,0.2,8.5c0.1,1.2,0.5,2,1,2.3c0.5,0.3,1.8,0.5,3.9,0.6l0.4,0.5
				V-404.4z M1527.6-414.7v-10.9c-4.9,1.1-8.1,2.2-9.8,3.4c-1.7,1.2-2.5,3.1-2.5,5.6c0,4,1.8,6,5.3,6
				C1523.5-410.5,1525.8-411.9,1527.6-414.7z"/>
			<path class="st3" d="M1624.3-404.4l-0.4,0.5c-1.7-0.2-4.7-0.3-9.1-0.3c-3.6,0-6.2,0.1-7.7,0.3l-0.6-0.8c0.5-7.3,0.7-12.7,0.7-16
				v-4c0-4.3-0.1-7.2-0.4-8.7c-0.3-1.8-1.1-3.2-2.2-4.2c-1.1-1.1-2.7-1.6-4.7-1.6c-2.2,0-4,0.6-5.5,1.9c-1.5,1.2-2.2,2.8-2.2,4.7
				v13.2l0.2,7c0.1,1.9,0.2,3.1,0.5,3.7c0.2,0.4,0.6,0.7,1.2,0.8c0.5,0.1,2,0.3,4.3,0.6l0.5,0.4v2.6l-0.5,0.5
				c-3.6-0.2-7.2-0.3-10.8-0.3c-4.5,0-8.4,0.1-11.7,0.3l-0.5-0.5v-2.6l0.4-0.5c1.9-0.2,3.1-0.3,3.8-0.5c0.5-0.1,0.9-0.6,1.1-1.3
				c0.2-0.6,0.3-2.2,0.3-4.9l0.1-14.3c0-3.3-0.2-5.7-0.8-7.1c-0.4-1.1-1.2-2-2.3-2.8c-1-0.7-2.4-1-4.1-1c-2.6,0-4.8,0.9-6.3,2.6
				c-0.7,0.8-1.2,1.5-1.3,2c-0.1,0.5-0.2,1.6-0.2,3.3v9.6c0,1.9,0.1,4.3,0.2,7.3c0.1,3.1,0.2,4.9,0.4,5.4c0.2,0.6,0.7,1,1.5,1.3
				c0.8,0.2,2,0.3,3.7,0.4l0.4,0.4v2.7l-0.4,0.4c-2.5-0.2-6.2-0.3-11.2-0.3c-5.3,0-9.3,0.1-12.1,0.3l-0.4-0.4v-2.7l0.4-0.4
				c2.8-0.1,4.6-0.3,5.3-0.7c0.6-0.3,0.9-1,1-2.1c0.2-3.8,0.3-7.9,0.3-12.3v-6.3c0-5.9-0.2-9.3-0.7-10.2c-0.3-0.6-0.9-1-1.9-1.1
				c-0.4-0.1-1.6-0.1-3.8-0.2l-0.4-0.4v-2.5l0.4-0.5c5.3-0.5,10.9-1.7,16.7-3.7l1,0.6l-0.1,7l7.9-6.4c1.4-0.6,3.1-1,5.1-1
				c3.4,0,6,0.6,7.9,1.7c1.9,1.1,3.4,3,4.5,5.8l8-6.5c1.4-0.7,3.2-1,5.3-1c5.7,0,9.6,2.1,11.8,6.2c1,1.8,1.5,4.6,1.5,8.4
				c0,1.6,0,2.7,0,3.5l0,1.7c-0.1,1.4-0.1,2.4-0.1,2.8v5.7c0,4.4,0.1,7.3,0.2,8.5c0.1,1.2,0.5,2,1,2.3c0.5,0.3,2,0.5,4.5,0.6
				l0.4,0.5V-404.4z"/>
		</g>
	</g>
	<g>
		<g>
			<path class="st3" d="M1337.5-394.2l0.1-0.1c1.7,0.1,2.8,0.1,3.4,0.1l6.8-0.1c1.9,0,3.5,0.2,4.8,0.5c1.2,0.4,2.3,1,3.3,1.9
				c1,0.9,1.7,1.9,2.2,3.1c0.5,1.2,0.7,2.5,0.7,3.8c0,1.3-0.2,2.6-0.7,3.9c-0.5,1.3-1.1,2.4-1.9,3.4c-0.8,1-1.8,1.8-2.9,2.5
				c-1.1,0.6-2.1,1-3.2,1.2c-1.1,0.2-2.2,0.3-3.3,0.3c-0.8,0-2.2,0-4.3-0.1c-0.7,0-1.1,0-1.4,0c-0.7,0-1.5,0-2.4,0.1l-0.1-0.1v-0.5
				l0.1-0.1c0.6-0.3,0.9-0.5,1-0.5c0.1-0.1,0.2-0.9,0.2-2.5c0.1-1.6,0.1-2.9,0.1-3.7v-5.3l0-3.3c0-0.7,0-1.3,0-1.8
				c0-0.5-0.1-0.8-0.1-1c0-0.2-0.1-0.3-0.2-0.4c-0.1-0.1-0.2-0.1-0.3-0.2c-0.1-0.1-0.4-0.1-0.7-0.1l-1.1-0.1l-0.1-0.1V-394.2z
				 M1342.9-375.2c1,0.2,2.1,0.3,3.4,0.3c2.3,0,4.1-0.4,5.4-1.1c1.4-0.8,2.4-1.9,3-3.4s1-3.2,1-5c0-2.7-0.7-4.9-2.2-6.4
				c-1.5-1.5-3.8-2.3-6.9-2.3c-1.3,0-2.5,0.1-3.8,0.3c-0.1,1.6-0.1,3.4-0.1,5.4v4.6l0,4.3C1342.8-377.7,1342.8-376.6,1342.9-375.2z"
				/>
			<path class="st3" d="M1388.4-394.3l1.8,0.1c1.2,0,2,0.1,2.3,0.1c0.3,0,1.7,0,4.2-0.1l0.1,0.1v0.7l-0.1,0.1c-0.7,0-1.2,0-1.5,0.1
				c-0.4,0-0.6,0.1-0.8,0.2c-0.2,0.1-0.3,0.4-0.3,0.7c-0.1,0.4-0.1,0.9-0.1,1.6l0,3.3v6.7l0,2.8c0,1.1,0,1.8,0.1,2.1
				s0.1,0.5,0.2,0.6c0.1,0.1,0.3,0.2,0.5,0.3c0.3,0.1,0.9,0.1,1.9,0.2l0.1,0.1v0.7l-0.1,0.1c0,0-0.9,0-2.6-0.1c-0.7,0-1.2,0-1.6,0
				c-0.3,0-1.7,0-4.2,0.1l-0.1-0.1v-0.7l0.1-0.1c0.9,0,1.5-0.1,1.8-0.1c0.3-0.1,0.5-0.1,0.6-0.2c0.1-0.1,0.2-0.3,0.2-0.6
				c0.1-0.3,0.1-1,0.1-2l0-3.1v-6.7l0-2.8c0-1.1,0-1.8-0.1-2.1c0-0.3-0.1-0.5-0.2-0.6c-0.1-0.1-0.3-0.2-0.5-0.3
				c-0.3-0.1-0.9-0.1-1.9-0.2l-0.1-0.1v-0.7L1388.4-394.3z"/>
			<path class="st3" d="M1446.7-381.7v0.4l-0.1,0.2l-0.7,0.4c-0.2,0.1-0.3,0.2-0.3,0.2c0,0.1-0.1,0.3-0.1,0.9c0,0.5-0.1,1.2-0.1,1.9
				c0,0.8,0.1,1.8,0.2,2.7l-0.1,0.1c-2.7,1-5.4,1.5-8.2,1.5c-2.2,0-4.1-0.4-5.8-1.2c-1.7-0.8-3.1-2-4.1-3.6c-1-1.6-1.5-3.5-1.5-5.7
				c0-3.4,1.1-6,3.4-8c2.3-2,5.3-3,9-3c2.7,0,5.2,0.5,7.3,1.4l0.1,0.2c-0.2,0.6-0.4,2-0.6,4.1l-0.1,0.1h-0.7l-0.1-0.1l-0.1-1.5
				c0-0.5-0.1-0.8-0.1-0.9c0-0.1-0.1-0.2-0.3-0.3c-0.2-0.1-0.6-0.4-1.3-0.7c-0.7-0.3-1.4-0.5-2.2-0.7c-0.7-0.1-1.5-0.2-2.3-0.2
				c-1.8,0-3.3,0.4-4.7,1.1c-1.4,0.7-2.4,1.8-3.1,3.2c-0.7,1.4-1,3-1,4.7c0,1.8,0.4,3.4,1.1,5c0.7,1.5,1.8,2.7,3.2,3.6
				s3,1.3,4.9,1.3c0.8,0,1.6-0.1,2.5-0.2c0.8-0.2,1.5-0.4,2.1-0.7c0.1-0.3,0.1-0.9,0.1-1.9v-1.6c0-0.8,0-1.2-0.1-1.4
				c-0.1-0.2-0.3-0.3-0.7-0.4c-0.4-0.1-1.2-0.1-2.5-0.1l-0.1-0.1v-0.6l0.1-0.1l0.9,0c1.5,0,2.8,0.1,3.7,0.1c0.6,0,1.4,0,2.4-0.1
				L1446.7-381.7z"/>
			<path class="st3" d="M1475.9-394.3l1.8,0.1c1.2,0,2,0.1,2.3,0.1c0.3,0,1.7,0,4.2-0.1l0.1,0.1v0.7l-0.1,0.1c-0.7,0-1.2,0-1.5,0.1
				c-0.4,0-0.6,0.1-0.8,0.2c-0.2,0.1-0.3,0.4-0.3,0.7c-0.1,0.4-0.1,0.9-0.1,1.6l0,3.3v6.7l0,2.8c0,1.1,0,1.8,0.1,2.1
				c0,0.3,0.1,0.5,0.2,0.6c0.1,0.1,0.3,0.2,0.5,0.3c0.3,0.1,0.9,0.1,1.9,0.2l0.1,0.1v0.7l-0.1,0.1c0,0-0.9,0-2.6-0.1
				c-0.7,0-1.2,0-1.6,0c-0.3,0-1.7,0-4.2,0.1l-0.1-0.1v-0.7l0.1-0.1c0.9,0,1.5-0.1,1.8-0.1c0.3-0.1,0.5-0.1,0.6-0.2
				c0.1-0.1,0.2-0.3,0.2-0.6c0.1-0.3,0.1-1,0.1-2l0-3.1v-6.7l0-2.8c0-1.1,0-1.8-0.1-2.1c0-0.3-0.1-0.5-0.2-0.6
				c-0.1-0.1-0.3-0.2-0.5-0.3c-0.3-0.1-0.9-0.1-1.9-0.2l-0.1-0.1v-0.7L1475.9-394.3z"/>
			<path class="st3" d="M1530.1-394.3l0.1,0.1c-0.1,0.9-0.1,2.4-0.1,4.6l-0.1,0.1h-0.7l-0.1-0.1l-0.2-1.3c-0.1-0.7-0.1-1.2-0.2-1.3
				c0-0.2-0.1-0.3-0.2-0.3c-0.1-0.1-0.4-0.1-0.9-0.2c-0.5,0-1.1-0.1-1.8-0.1h-2.7c-0.1,2.2-0.1,3.5-0.1,3.8v8.5l0,2.8
				c0,1.1,0,1.8,0.1,2.1c0,0.3,0.1,0.5,0.2,0.6c0.1,0.1,0.3,0.2,0.5,0.3c0.3,0.1,0.9,0.1,1.9,0.2l0.1,0.1v0.7l-0.1,0.1
				c-2.5-0.1-3.9-0.1-4.2-0.1c-0.3,0-1.7,0-4.1,0.1l-0.1-0.1v-0.7l0.1-0.1c0.9,0,1.5-0.1,1.8-0.1c0.3-0.1,0.5-0.1,0.6-0.2
				c0.1-0.1,0.2-0.3,0.3-0.6c0.1-0.3,0.1-1,0.1-2l0-3.1v-8.5c0-0.2,0-1.4-0.1-3.8h-2.2c-0.9,0-1.7,0-2.3,0.1c-0.6,0-1,0.1-1.1,0.3
				c-0.1,0.2-0.2,0.7-0.3,1.6l-0.1,1.3l-0.1,0.1h-0.7l-0.1-0.1c0-2.3-0.1-3.9-0.1-4.6l0.1-0.1c1.7,0.1,4.5,0.1,8.4,0.1
				C1525.6-394.2,1528.4-394.2,1530.1-394.3z"/>
			<path class="st3" d="M1556.9-373.6l-0.1-0.1v-0.8l0.1-0.1c0.7,0,1.2,0,1.4-0.1c0.2-0.1,0.4-0.2,0.5-0.4c0.2-0.2,0.5-0.8,1-1.9
				l1.5-3.3l4-9c0.7-1.8,1.5-3.5,2.2-5.3h0.9l6.2,14.6l0.8,1.9c0.2,0.6,0.5,1.2,0.8,1.8c0.3,0.6,0.5,1,0.7,1.1s0.3,0.2,0.5,0.3
				c0.2,0.1,0.6,0.1,1.2,0.1l0.1,0.1v0.8l-0.1,0.1c-1-0.1-2-0.1-2.8-0.1c-1.6,0-3.2,0.1-4.8,0.1l-0.1-0.1v-0.8l0.1-0.1
				c1.1,0,1.8-0.1,2-0.1c0.3-0.1,0.4-0.2,0.4-0.5c0-0.2-0.1-0.5-0.2-0.8l-1.8-4.4h-8.4l-1.6,3.7c-0.3,0.7-0.4,1.2-0.4,1.5
				c0,0.2,0.1,0.4,0.4,0.5c0.3,0.1,0.9,0.2,2,0.2l0.1,0.1v0.8l-0.1,0.1c-1.3-0.1-2.3-0.1-3.3-0.1
				C1559.1-373.7,1558-373.7,1556.9-373.6z M1563.5-381.8h7.4l-3.7-8.8L1563.5-381.8z"/>
			<path class="st3" d="M1607.4-394.2l0.1-0.1c2.4,0.1,3.8,0.1,4.2,0.1c0.3,0,1.7,0,4.2-0.1l0.1,0.1v0.7l-0.1,0.1
				c-0.7,0-1.2,0-1.5,0.1c-0.4,0-0.6,0.1-0.8,0.2c-0.2,0.1-0.3,0.4-0.3,0.7c-0.1,0.4-0.1,0.9-0.1,1.6l0,3.3v6.4c0,1.6,0,2.7,0,3.4
				l0.1,2.5h3c2.4,0,3.8,0,4.4-0.1s1.2-0.2,1.7-0.4c0.1-0.2,0.3-0.8,0.5-1.7c0.2-0.9,0.3-1.4,0.3-1.5l0.1-0.1h0.7l0.1,0.1
				c-0.1,0.4-0.2,1.1-0.2,2.3c-0.1,1.1-0.1,2-0.1,2.7l-0.1,0.1c-1.8-0.1-4.3-0.1-7.3-0.1l-4.2,0c-1,0-2,0-3,0.1l-0.1-0.1v-0.5
				l0.1-0.1c0.6-0.3,0.9-0.5,1-0.6c0.1-0.1,0.1-0.7,0.2-1.9c0.1-1.2,0.1-2.6,0.1-4.3v-6.2l0-2.8c0-1.1,0-1.8-0.1-2.1
				c0-0.3-0.1-0.5-0.2-0.6c-0.1-0.1-0.3-0.2-0.5-0.3c-0.3-0.1-0.9-0.1-1.9-0.2l-0.1-0.1V-394.2z"/>
		</g>
	</g>
</g>
<g>
	<polygon class="st3" points="1151.3,-698.4 1059.9,-607 968.6,-515.7 968.6,-698.4 1008.1,-658.9 987.4,-622.5 1030.6,-665.7 
		1063.3,-698.4 	"/>
	
		<linearGradient id="SVGID_00000129171814862724894450000003618378958317133208_" gradientUnits="userSpaceOnUse" x1="975.4727" y1="-627.8583" x2="1010.7908" y2="-707.1841">
		<stop  offset="0" style="stop-color:#B3B3B3"/>
		<stop  offset="0.1084" style="stop-color:#C4C4C4"/>
		<stop  offset="0.3178" style="stop-color:#DEDEDE"/>
		<stop  offset="0.5333" style="stop-color:#F0F0F0"/>
		<stop  offset="0.7566" style="stop-color:#FBFBFB"/>
		<stop  offset="1" style="stop-color:#FFFFFF"/>
	</linearGradient>
	<polygon style="fill:url(#SVGID_00000129171814862724894450000003618378958317133208_);" points="1030.6,-698.4 1030.6,-665.7 
		987.4,-622.5 1008.1,-658.9 968.6,-698.4 	"/>
	<polygon class="st3" points="1151.3,-515.7 1063.6,-515.7 1016.1,-563.2 1059.9,-607 	"/>
	
		<linearGradient id="SVGID_00000155113722214010620740000002951891544417785751_" gradientUnits="userSpaceOnUse" x1="1016.0946" y1="-563.1969" x2="1016.0946" y2="-563.1969">
		<stop  offset="0" style="stop-color:#864433"/>
		<stop  offset="0.3195" style="stop-color:#B76733"/>
		<stop  offset="0.6169" style="stop-color:#DE8233"/>
		<stop  offset="0.8536" style="stop-color:#F69333"/>
		<stop  offset="1" style="stop-color:#FF9933"/>
	</linearGradient>
	<path style="fill:url(#SVGID_00000155113722214010620740000002951891544417785751_);" d="M1016.1-563.2"/>
	
		<linearGradient id="SVGID_00000046333273034481292400000005533830677015280801_" gradientUnits="userSpaceOnUse" x1="1026.6156" y1="-590.3724" x2="1067.6566" y2="-590.3724">
		<stop  offset="0" style="stop-color:#B3B3B3"/>
		<stop  offset="0.1084" style="stop-color:#C4C4C4"/>
		<stop  offset="0.3178" style="stop-color:#DEDEDE"/>
		<stop  offset="0.5333" style="stop-color:#F0F0F0"/>
		<stop  offset="0.7566" style="stop-color:#FBFBFB"/>
		<stop  offset="1" style="stop-color:#FFFFFF"/>
	</linearGradient>
	<polyline style="fill:url(#SVGID_00000046333273034481292400000005533830677015280801_);" points="1026.6,-573.7 1059.9,-607 
		1059.9,-607 1067.7,-599.3 	"/>
</g>
<g>
	<g>
		<g>
			<path class="st3" d="M968.3-412.3l-0.4,0.4c-2-0.1-4.4-0.2-7.2-0.2c-2.6,0-5.2,0.1-7.8,0.2c-1.6-3-5.6-8-12-15
				c-3.3-3.7-5.4-5.8-6.4-6.5l0.3,15.1c0.1,1.1,0.4,1.9,1,2.1c0.7,0.4,2.4,0.6,5.3,0.7l0.5,0.4v2.7l-0.4,0.4
				c-2.8-0.2-6.8-0.3-12.1-0.3c-5.3,0-9.3,0.1-12.1,0.3l-0.4-0.4v-2.7l0.4-0.4c2.8-0.1,4.6-0.3,5.3-0.7c0.6-0.3,0.9-1,1-2.1
				c0.2-3.8,0.3-10.5,0.3-20.1v-14.8c0-6.2-0.1-11.2-0.3-15c-0.1-1.1-0.4-1.8-1-2.1c-0.6-0.3-2.3-0.6-5.1-0.6l-0.4-0.5v-2.4l0.4-0.5
				c5.7-0.6,11.4-1.8,17.1-3.7l0.9,0.5c0,0.8,0,2.3-0.1,4.4c-0.3,7-0.4,14.8-0.4,23.4v14.4l4.4-3.6c1.9-1.6,4.6-4.2,8-7.8l4.6-4.9
				c0.9-0.9,1.5-1.7,2-2.4c2.5,0.1,4.5,0.1,6.1,0.1c2,0,3.8,0,5.3-0.1l0.4,0.4v2.6l-0.4,0.4l-3.2,0.2c-1.3,0.1-2.6,0.6-4,1.5
				c-0.5,0.4-1.6,1.3-3.4,2.6l-3.7,3l-1.3,1.2l-3.8,3.4l9.4,11c6,7,9.6,10.8,10.8,11.4c0.6,0.3,1.3,0.4,1.9,0.4l0.4,0.5V-412.3z"/>
			<path class="st3" d="M1012.3-412.4l-0.5,0.5c-2.5-0.1-5.3-0.2-8.5-0.2c-2.5,0-4.9,0.1-7.2,0.2l-0.4-0.5l0.4-5.9l-8.6,6.5
				c-0.7,0.5-1.6,0.8-2.9,0.9c-0.5,0.1-1.1,0.1-1.8,0.1c-3.3,0-5.8-1-7.5-3c-1.8-2-2.6-4.7-2.6-8.2c0-4.6,1.5-7.8,4.4-9.8
				c3.1-2.1,9.5-4,19-5.7c0-4.7-1.2-7.8-3.7-9.4c-1.5-1-3.3-1.5-5.4-1.5c-2.3,0-4.1,0.5-5.4,1.4l-1.7,4.1l-0.6,0.3l-2.3-0.5
				l-0.3-0.6l0.2-5.2c4.9-3.6,8.5-5.6,11-6.1c1-0.2,2.4-0.3,4-0.3c5.8,0,9.9,1.5,12.4,4.5c1.8,2.2,2.7,5.6,2.7,10.2
				c0,1.1,0,2.9-0.1,5.4c-0.1,4.1-0.2,6.9-0.2,8.3c0,4.4,0.1,7.3,0.2,8.5c0.1,1.2,0.5,2,1,2.3c0.5,0.3,1.8,0.5,3.9,0.6l0.4,0.5
				V-412.4z M996.1-422.7v-10.9c-4.9,1.1-8.1,2.2-9.8,3.4c-1.7,1.2-2.5,3.1-2.5,5.6c0,4,1.8,6,5.3,6
				C992-418.5,994.4-419.9,996.1-422.7z"/>
			<path class="st3" d="M1049.5-454.8l-0.3,7.9c0,1.3-0.1,2.8-0.2,4.4l-1.9,0.6c-1.4-2-3.3-3-5.7-3c-2.2,0-4,0.9-5.5,2.6
				c-0.9,1.1-1.3,2.7-1.3,4.8v10.3c0,2.1,0.1,5.1,0.3,9c0.1,1.1,0.4,1.8,0.9,2.1c0.6,0.3,2.6,0.5,6.1,0.7l0.4,0.4v2.7l-0.4,0.4
				c-4.3-0.2-8.6-0.3-12.9-0.3c-5.3,0-9.3,0.1-12.1,0.3l-0.4-0.4v-2.7l0.4-0.4c2.8-0.1,4.6-0.3,5.3-0.7c0.6-0.3,0.9-1,1-2.1
				c0.2-3.8,0.3-7.9,0.3-12.3v-6.3c0-5.9-0.2-9.3-0.7-10.2c-0.3-0.6-0.9-1-1.9-1.1c-0.4-0.1-1.6-0.1-3.8-0.2l-0.4-0.4v-2.5l0.4-0.5
				c5.3-0.5,10.9-1.7,16.7-3.7l1,0.6l-0.1,8.7c1.8-2.1,4-4.6,6.6-7.4c1.2-1.2,2.9-1.8,4.9-1.8
				C1047.6-455.3,1048.7-455.1,1049.5-454.8z"/>
			<path class="st3" d="M1077.2-412.3l-0.4,0.4c-2.8-0.2-6.8-0.3-12.1-0.3c-5.3,0-9.3,0.1-12.1,0.3l-0.4-0.4v-2.7l0.4-0.4
				c2.8-0.1,4.6-0.3,5.3-0.7c0.6-0.3,0.9-1,1-2.1c0.2-3.8,0.3-7.9,0.3-12.3v-6.3c0-5.7-0.2-9.1-0.7-10.2c-0.2-0.6-0.9-1-1.9-1.1
				c-0.4-0.1-1.6-0.1-3.8-0.2l-0.4-0.4v-2.5l0.4-0.5c5.7-0.5,11.3-1.7,17.1-3.7l0.9,0.6c-0.4,5.4-0.6,9.9-0.6,13.6v14.1
				c0,2.1,0.1,5.1,0.3,9c0.1,1.1,0.4,1.9,1,2.1c0.7,0.4,2.4,0.6,5.3,0.7l0.5,0.4V-412.3z M1071.1-469.9c0,1.9-0.7,3.5-2,4.8
				c-1.3,1.3-2.9,2-4.8,2c-1.9,0-3.5-0.7-4.8-2c-1.3-1.3-2-3-2-4.8c0-1.9,0.7-3.6,2-4.9c1.3-1.3,2.9-2,4.8-2c1.8,0,3.4,0.7,4.7,2
				C1070.4-473.5,1071.1-471.8,1071.1-469.9z"/>
			<path class="st3" d="M1122.9-412.4l-0.5,0.5c-2.5-0.1-5.3-0.2-8.5-0.2c-2.5,0-4.9,0.1-7.2,0.2l-0.4-0.5l0.4-5.9l-8.6,6.5
				c-0.7,0.5-1.6,0.8-2.9,0.9c-0.5,0.1-1.1,0.1-1.8,0.1c-3.3,0-5.8-1-7.5-3c-1.8-2-2.6-4.7-2.6-8.2c0-4.6,1.5-7.8,4.4-9.8
				c3.1-2.1,9.5-4,19-5.7c0-4.7-1.2-7.8-3.7-9.4c-1.5-1-3.3-1.5-5.4-1.5c-2.3,0-4.1,0.5-5.4,1.4l-1.7,4.1l-0.6,0.3l-2.3-0.5
				l-0.3-0.6l0.2-5.2c4.9-3.6,8.5-5.6,11-6.1c1-0.2,2.4-0.3,4-0.3c5.8,0,9.9,1.5,12.4,4.5c1.8,2.2,2.7,5.6,2.7,10.2
				c0,1.1,0,2.9-0.1,5.4c-0.1,4.1-0.2,6.9-0.2,8.3c0,4.4,0.1,7.3,0.2,8.5c0.1,1.2,0.5,2,1,2.3c0.5,0.3,1.8,0.5,3.9,0.6l0.4,0.5
				V-412.4z M1106.7-422.7v-10.9c-4.9,1.1-8.1,2.2-9.8,3.4c-1.7,1.2-2.5,3.1-2.5,5.6c0,4,1.8,6,5.3,6
				C1102.5-418.5,1104.9-419.9,1106.7-422.7z"/>
			<path class="st3" d="M1203.3-412.4l-0.4,0.5c-1.7-0.2-4.7-0.3-9.1-0.3c-3.6,0-6.2,0.1-7.7,0.3l-0.6-0.8c0.5-7.3,0.7-12.7,0.7-16
				v-4c0-4.3-0.1-7.2-0.4-8.7c-0.3-1.8-1.1-3.2-2.2-4.2c-1.1-1.1-2.7-1.6-4.7-1.6c-2.2,0-4,0.6-5.5,1.9c-1.5,1.2-2.2,2.8-2.2,4.7
				v13.2l0.2,7c0.1,1.9,0.2,3.1,0.5,3.7c0.2,0.4,0.6,0.7,1.2,0.8c0.5,0.1,2,0.3,4.3,0.6l0.5,0.4v2.6l-0.5,0.5
				c-3.6-0.2-7.2-0.3-10.8-0.3c-4.5,0-8.4,0.1-11.7,0.3l-0.5-0.5v-2.6l0.4-0.5c1.9-0.2,3.1-0.3,3.8-0.5c0.5-0.1,0.9-0.6,1.1-1.3
				c0.2-0.6,0.3-2.2,0.3-4.9l0.1-14.3c0-3.3-0.2-5.7-0.8-7.1c-0.4-1.1-1.2-2-2.3-2.8c-1-0.7-2.4-1-4.1-1c-2.6,0-4.8,0.9-6.3,2.6
				c-0.7,0.8-1.2,1.5-1.3,2c-0.1,0.5-0.2,1.6-0.2,3.3v9.6c0,1.9,0.1,4.3,0.2,7.3c0.1,3.1,0.2,4.9,0.4,5.4c0.2,0.6,0.7,1,1.5,1.3
				c0.8,0.2,2,0.3,3.7,0.4l0.4,0.4v2.7l-0.4,0.4c-2.5-0.2-6.2-0.3-11.2-0.3c-5.3,0-9.3,0.1-12.1,0.3l-0.4-0.4v-2.7l0.4-0.4
				c2.8-0.1,4.6-0.3,5.3-0.7c0.6-0.3,0.9-1,1-2.1c0.2-3.8,0.3-7.9,0.3-12.3v-6.3c0-5.9-0.2-9.3-0.7-10.2c-0.3-0.6-0.9-1-1.9-1.1
				c-0.4-0.1-1.6-0.1-3.8-0.2l-0.4-0.4v-2.5l0.4-0.5c5.3-0.5,10.9-1.7,16.7-3.7l1,0.6l-0.1,7l7.9-6.4c1.4-0.6,3.1-1,5.1-1
				c3.4,0,6,0.6,7.9,1.7c1.9,1.1,3.4,3,4.5,5.8l8-6.5c1.4-0.7,3.2-1,5.3-1c5.7,0,9.6,2.1,11.8,6.2c1,1.8,1.5,4.6,1.5,8.4
				c0,1.6,0,2.7,0,3.5l0,1.7c-0.1,1.4-0.1,2.4-0.1,2.8v5.7c0,4.4,0.1,7.3,0.2,8.5c0.1,1.2,0.5,2,1,2.3c0.5,0.3,2,0.5,4.5,0.6
				l0.4,0.5V-412.4z"/>
		</g>
	</g>
	<g>
		<g>
			<path class="st3" d="M916.5-402.2l0.1-0.1c1.7,0.1,2.8,0.1,3.4,0.1l6.8-0.1c1.9,0,3.5,0.2,4.8,0.5c1.2,0.4,2.3,1,3.3,1.9
				c1,0.9,1.7,1.9,2.2,3.1c0.5,1.2,0.7,2.5,0.7,3.8c0,1.3-0.2,2.6-0.7,3.9s-1.1,2.4-1.9,3.4c-0.8,1-1.8,1.8-2.9,2.5
				c-1.1,0.6-2.1,1-3.2,1.2c-1.1,0.2-2.2,0.3-3.3,0.3c-0.8,0-2.2,0-4.3-0.1c-0.7,0-1.1,0-1.4,0c-0.7,0-1.5,0-2.4,0.1l-0.1-0.1v-0.5
				l0.1-0.1c0.6-0.3,0.9-0.5,1-0.5c0.1-0.1,0.1-0.9,0.2-2.5c0.1-1.6,0.1-2.9,0.1-3.7v-5.3l0-3.3c0-0.7,0-1.3,0-1.8
				c0-0.5-0.1-0.8-0.1-1c0-0.2-0.1-0.3-0.2-0.4c-0.1-0.1-0.2-0.1-0.3-0.2c-0.1-0.1-0.4-0.1-0.7-0.1l-1.1-0.1l-0.1-0.1V-402.2z
				 M921.9-383.2c1,0.2,2.1,0.3,3.4,0.3c2.3,0,4.1-0.4,5.4-1.1c1.4-0.8,2.4-1.9,3-3.4s1-3.2,1-5c0-2.7-0.7-4.9-2.2-6.4
				c-1.5-1.5-3.8-2.3-6.9-2.3c-1.3,0-2.5,0.1-3.8,0.3c-0.1,1.6-0.1,3.4-0.1,5.4v4.6l0,4.3C921.8-385.7,921.9-384.6,921.9-383.2z"/>
			<path class="st3" d="M967.4-402.3l1.8,0.1c1.2,0,2,0.1,2.3,0.1c0.3,0,1.7,0,4.2-0.1l0.1,0.1v0.7l-0.1,0.1c-0.7,0-1.2,0-1.5,0.1
				c-0.4,0-0.6,0.1-0.8,0.2c-0.2,0.1-0.3,0.4-0.3,0.7c-0.1,0.4-0.1,0.9-0.1,1.6l0,3.3v6.7l0,2.8c0,1.1,0,1.8,0.1,2.1
				s0.1,0.5,0.2,0.6c0.1,0.1,0.3,0.2,0.5,0.3c0.3,0.1,0.9,0.1,1.9,0.2l0.1,0.1v0.7l-0.1,0.1c0,0-0.9,0-2.6-0.1c-0.7,0-1.2,0-1.6,0
				c-0.3,0-1.7,0-4.2,0.1l-0.1-0.1v-0.7l0.1-0.1c0.9,0,1.5-0.1,1.8-0.1c0.3-0.1,0.5-0.1,0.6-0.2c0.1-0.1,0.2-0.3,0.2-0.6
				c0.1-0.3,0.1-1,0.1-2l0-3.1v-6.7l0-2.8c0-1.1,0-1.8-0.1-2.1c0-0.3-0.1-0.5-0.2-0.6c-0.1-0.1-0.3-0.2-0.5-0.3
				c-0.3-0.1-0.9-0.1-1.9-0.2l-0.1-0.1v-0.7L967.4-402.3z"/>
			<path class="st3" d="M1025.8-389.7v0.4l-0.1,0.2l-0.7,0.4c-0.2,0.1-0.3,0.2-0.3,0.2c0,0.1-0.1,0.3-0.1,0.9c0,0.5-0.1,1.2-0.1,1.9
				c0,0.8,0.1,1.8,0.2,2.7l-0.1,0.1c-2.7,1-5.4,1.5-8.2,1.5c-2.2,0-4.1-0.4-5.8-1.2c-1.7-0.8-3.1-2-4.1-3.6c-1-1.6-1.5-3.5-1.5-5.7
				c0-3.4,1.1-6,3.4-8c2.3-2,5.3-3,9-3c2.7,0,5.2,0.5,7.3,1.4l0.1,0.2c-0.2,0.6-0.4,2-0.6,4.1l-0.1,0.1h-0.7l-0.1-0.1l-0.1-1.5
				c0-0.5-0.1-0.8-0.1-0.9c0-0.1-0.1-0.2-0.3-0.3c-0.2-0.1-0.6-0.4-1.3-0.7c-0.7-0.3-1.4-0.5-2.2-0.7c-0.7-0.1-1.5-0.2-2.3-0.2
				c-1.8,0-3.3,0.4-4.7,1.1c-1.4,0.7-2.4,1.8-3.1,3.2c-0.7,1.4-1,3-1,4.7c0,1.8,0.4,3.4,1.1,5c0.7,1.5,1.8,2.7,3.2,3.6
				c1.4,0.9,3,1.3,4.9,1.3c0.8,0,1.6-0.1,2.5-0.2c0.8-0.2,1.5-0.4,2.1-0.7c0.1-0.3,0.1-0.9,0.1-1.9v-1.6c0-0.8,0-1.2-0.1-1.4
				c-0.1-0.2-0.3-0.3-0.7-0.4c-0.4-0.1-1.2-0.1-2.5-0.1l-0.1-0.1v-0.6l0.1-0.1l0.9,0c1.5,0,2.8,0.1,3.7,0.1c0.6,0,1.4,0,2.4-0.1
				L1025.8-389.7z"/>
			<path class="st3" d="M1055-402.3l1.8,0.1c1.2,0,2,0.1,2.3,0.1c0.3,0,1.7,0,4.2-0.1l0.1,0.1v0.7l-0.1,0.1c-0.7,0-1.2,0-1.5,0.1
				s-0.6,0.1-0.8,0.2c-0.2,0.1-0.3,0.4-0.3,0.7c-0.1,0.4-0.1,0.9-0.1,1.6l0,3.3v6.7l0,2.8c0,1.1,0,1.8,0.1,2.1
				c0,0.3,0.1,0.5,0.2,0.6c0.1,0.1,0.3,0.2,0.5,0.3c0.3,0.1,0.9,0.1,1.9,0.2l0.1,0.1v0.7l-0.1,0.1c0,0-0.9,0-2.6-0.1
				c-0.7,0-1.2,0-1.6,0c-0.3,0-1.7,0-4.2,0.1l-0.1-0.1v-0.7l0.1-0.1c0.9,0,1.5-0.1,1.8-0.1c0.3-0.1,0.5-0.1,0.6-0.2
				c0.1-0.1,0.2-0.3,0.2-0.6c0.1-0.3,0.1-1,0.1-2l0-3.1v-6.7l0-2.8c0-1.1,0-1.8-0.1-2.1c0-0.3-0.1-0.5-0.2-0.6
				c-0.1-0.1-0.3-0.2-0.5-0.3c-0.3-0.1-0.9-0.1-1.9-0.2l-0.1-0.1v-0.7L1055-402.3z"/>
			<path class="st3" d="M1109.1-402.3l0.1,0.1c-0.1,0.9-0.1,2.4-0.1,4.6l-0.1,0.1h-0.7l-0.1-0.1l-0.2-1.3c-0.1-0.7-0.1-1.2-0.2-1.3
				c0-0.2-0.1-0.3-0.2-0.3c-0.1-0.1-0.4-0.1-0.9-0.2c-0.5,0-1.1-0.1-1.8-0.1h-2.7c-0.1,2.2-0.1,3.5-0.1,3.8v8.5l0,2.8
				c0,1.1,0,1.8,0.1,2.1c0,0.3,0.1,0.5,0.2,0.6c0.1,0.1,0.3,0.2,0.5,0.3c0.3,0.1,0.9,0.1,1.9,0.2l0.1,0.1v0.7l-0.1,0.1
				c-2.5-0.1-3.9-0.1-4.2-0.1c-0.3,0-1.7,0-4.1,0.1l-0.1-0.1v-0.7l0.1-0.1c0.9,0,1.5-0.1,1.8-0.1c0.3-0.1,0.5-0.1,0.6-0.2
				c0.1-0.1,0.2-0.3,0.3-0.6c0.1-0.3,0.1-1,0.1-2l0-3.1v-8.5c0-0.2,0-1.4-0.1-3.8h-2.2c-0.9,0-1.7,0-2.3,0.1c-0.6,0-1,0.1-1.1,0.3
				c-0.1,0.2-0.2,0.7-0.3,1.6l-0.1,1.3l-0.1,0.1h-0.7l-0.1-0.1c0-2.3-0.1-3.9-0.1-4.6l0.1-0.1c1.7,0.1,4.5,0.1,8.4,0.1
				C1104.7-402.2,1107.5-402.2,1109.1-402.3z"/>
			<path class="st3" d="M1135.9-381.6l-0.1-0.1v-0.8l0.1-0.1c0.7,0,1.2,0,1.4-0.1c0.2-0.1,0.4-0.2,0.5-0.4c0.2-0.2,0.5-0.8,1-1.9
				l1.5-3.3l4-9c0.7-1.8,1.5-3.5,2.2-5.3h0.9l6.2,14.6l0.8,1.9c0.2,0.6,0.5,1.2,0.8,1.8c0.3,0.6,0.5,1,0.7,1.1s0.3,0.2,0.5,0.3
				c0.2,0.1,0.6,0.1,1.2,0.1l0.1,0.1v0.8l-0.1,0.1c-1-0.1-2-0.1-2.8-0.1c-1.6,0-3.2,0.1-4.8,0.1l-0.1-0.1v-0.8l0.1-0.1
				c1.1,0,1.8-0.1,2-0.1c0.3-0.1,0.4-0.2,0.4-0.5c0-0.2-0.1-0.5-0.2-0.8l-1.8-4.4h-8.4l-1.6,3.7c-0.3,0.7-0.4,1.2-0.4,1.5
				c0,0.2,0.1,0.4,0.4,0.5c0.3,0.1,0.9,0.2,2,0.2l0.1,0.1v0.8l-0.1,0.1c-1.3-0.1-2.3-0.1-3.3-0.1
				C1138.1-381.7,1137-381.7,1135.9-381.6z M1142.6-389.8h7.4l-3.7-8.8L1142.6-389.8z"/>
			<path class="st3" d="M1186.4-402.2l0.1-0.1c2.4,0.1,3.8,0.1,4.2,0.1c0.3,0,1.7,0,4.2-0.1l0.1,0.1v0.7l-0.1,0.1
				c-0.7,0-1.2,0-1.5,0.1s-0.6,0.1-0.8,0.2c-0.2,0.1-0.3,0.4-0.3,0.7c-0.1,0.4-0.1,0.9-0.1,1.6l0,3.3v6.4c0,1.6,0,2.7,0,3.4l0.1,2.5
				h3c2.4,0,3.8,0,4.4-0.1s1.2-0.2,1.7-0.4c0.1-0.2,0.3-0.8,0.5-1.7c0.2-0.9,0.3-1.4,0.3-1.5l0.1-0.1h0.7l0.1,0.1
				c-0.1,0.4-0.2,1.1-0.2,2.3c-0.1,1.1-0.1,2-0.1,2.7l-0.1,0.1c-1.8-0.1-4.3-0.1-7.3-0.1l-4.2,0c-1,0-2,0-3,0.1l-0.1-0.1v-0.5
				l0.1-0.1c0.6-0.3,0.9-0.5,1-0.6c0.1-0.1,0.1-0.7,0.2-1.9c0.1-1.2,0.1-2.6,0.1-4.3v-6.2l0-2.8c0-1.1,0-1.8-0.1-2.1
				c0-0.3-0.1-0.5-0.2-0.6c-0.1-0.1-0.3-0.2-0.5-0.3c-0.3-0.1-0.9-0.1-1.9-0.2l-0.1-0.1V-402.2z"/>
		</g>
	</g>
</g>
<g>
	<polygon class="st2" points="203.8,357.3 107.9,453.3 11.9,549.2 11.9,357.3 53.4,398.8 31.7,437 77,391.6 111.3,357.3 	"/>
	
		<linearGradient id="SVGID_00000048471393509036798310000012174779964957230782_" gradientUnits="userSpaceOnUse" x1="19.1238" y1="431.3719" x2="56.2299" y2="348.0302">
		<stop  offset="0" style="stop-color:#864433"/>
		<stop  offset="0.3195" style="stop-color:#B76733"/>
		<stop  offset="0.6169" style="stop-color:#DE8233"/>
		<stop  offset="0.8536" style="stop-color:#F69333"/>
		<stop  offset="1" style="stop-color:#FF9933"/>
	</linearGradient>
	<polygon style="fill:url(#SVGID_00000048471393509036798310000012174779964957230782_);" points="77,357.3 77,391.6 31.7,437 
		53.4,398.8 11.9,357.3 	"/>
	<polygon class="st2" points="203.8,549.2 111.7,549.2 61.8,499.3 107.9,453.3 	"/>
	
		<linearGradient id="SVGID_00000011741654531883994570000008320933020654566320_" gradientUnits="userSpaceOnUse" x1="61.8021" y1="499.3068" x2="61.8021" y2="499.3068">
		<stop  offset="0" style="stop-color:#864433"/>
		<stop  offset="0.3195" style="stop-color:#B76733"/>
		<stop  offset="0.6169" style="stop-color:#DE8233"/>
		<stop  offset="0.8536" style="stop-color:#F69333"/>
		<stop  offset="1" style="stop-color:#FF9933"/>
	</linearGradient>
	<path style="fill:url(#SVGID_00000011741654531883994570000008320933020654566320_);" d="M61.8,499.3"/>
	
		<linearGradient id="SVGID_00000041259489191499081040000008630193228640422027_" gradientUnits="userSpaceOnUse" x1="72.8557" y1="470.7555" x2="115.9744" y2="470.7555">
		<stop  offset="0" style="stop-color:#864433"/>
		<stop  offset="0.3195" style="stop-color:#B76733"/>
		<stop  offset="0.6169" style="stop-color:#DE8233"/>
		<stop  offset="0.8536" style="stop-color:#F69333"/>
		<stop  offset="1" style="stop-color:#FF9933"/>
	</linearGradient>
	<polyline style="fill:url(#SVGID_00000041259489191499081040000008630193228640422027_);" points="72.9,488.3 107.9,453.3 
		107.9,453.3 116,461.4 	"/>
</g>
<g>
	<g>
		<path class="st1" d="M335.8,493.2l-0.9,0.9c-4.1-0.2-9.1-0.4-14.9-0.4c-5.4,0-10.8,0.1-16.1,0.4c-3.4-6.2-11.7-16.6-24.8-31
			c-6.9-7.6-11.3-12.1-13.2-13.4l0.6,31.3c0.1,2.4,0.8,3.8,2,4.4c1.4,0.7,5,1.2,10.9,1.4l1,0.9v5.6l-0.9,0.9
			c-5.8-0.4-14.1-0.6-25.1-0.6c-10.9,0-19.2,0.2-25,0.6l-0.9-0.9v-5.6l0.9-0.9c5.9-0.2,9.5-0.6,10.9-1.4c1.2-0.5,1.9-2,2-4.4
			c0.4-7.9,0.6-21.8,0.6-41.6v-30.6c0-12.8-0.2-23.2-0.6-31.1c-0.1-2.3-0.8-3.7-2-4.4c-1.2-0.7-4.8-1.1-10.6-1.3l-0.9-1v-5l0.9-1
			c11.8-1.3,23.6-3.8,35.4-7.6l1.9,1.1c0,1.6-0.1,4.7-0.3,9.1c-0.6,14.6-0.9,30.7-0.9,48.4v29.9l9.1-7.4c4-3.2,9.5-8.6,16.6-16.2
			l9.5-10.1c1.8-1.9,3.2-3.5,4.2-4.9c5.2,0.2,9.4,0.3,12.6,0.3c4.1,0,7.8-0.1,11.1-0.3l0.9,0.9v5.5l-0.9,0.9l-6.7,0.4
			c-2.7,0.1-5.5,1.2-8.3,3.2c-1.1,0.8-3.4,2.6-7,5.5l-7.7,6.3l-2.7,2.6l-7.8,7l19.6,22.9c12.4,14.5,19.9,22.4,22.4,23.6
			c1.3,0.6,2.6,0.9,4,0.9l0.9,1V493.2z"/>
		<path class="st1" d="M427.1,492.9l-1,1c-5.1-0.3-11-0.5-17.6-0.5c-5.2,0-10.2,0.2-14.9,0.5l-0.8-1l0.8-12.3l-17.7,13.5
			c-1.4,1-3.4,1.7-6,1.9c-1,0.1-2.3,0.2-3.7,0.2c-6.8,0-12-2-15.6-6.1c-3.6-4.1-5.4-9.7-5.4-16.9c0-9.5,3-16.2,9.1-20.2
			c6.5-4.3,19.7-8.2,39.4-11.7c0-9.7-2.6-16.2-7.7-19.5c-3.1-2-6.8-3-11.2-3c-4.8,0-8.5,1-11.2,2.9l-3.5,8.5l-1.2,0.6l-4.7-1.1
			l-0.6-1.3l0.5-10.8c10.1-7.4,17.6-11.6,22.7-12.6c2.1-0.4,4.9-0.6,8.3-0.6c12,0,20.6,3.1,25.7,9.4c3.7,4.6,5.6,11.6,5.6,21
			c0,2.3-0.1,6-0.3,11.2c-0.3,8.5-0.5,14.2-0.5,17.1c0,9.2,0.2,15.1,0.5,17.6c0.3,2.5,1,4.1,2.1,4.8c1.1,0.7,3.8,1.1,8.1,1.2l0.9,1
			V492.9z M393.5,471.6v-22.5c-10.1,2.2-16.8,4.6-20.3,7.1c-3.5,2.5-5.3,6.4-5.3,11.6c0,8.3,3.6,12.4,10.9,12.4
			C384.9,480.2,389.8,477.3,393.5,471.6z"/>
		<path class="st1" d="M504.1,405.1l-0.6,16.3c-0.1,2.7-0.2,5.7-0.4,9.1l-3.8,1.2c-2.9-4.1-6.8-6.2-11.9-6.2
			c-4.6,0-8.4,1.8-11.3,5.5c-1.8,2.3-2.7,5.6-2.7,10v21.4c0,4.5,0.2,10.6,0.6,18.6c0.1,2.3,0.8,3.7,1.9,4.4
			c1.2,0.7,5.4,1.1,12.7,1.4l0.9,0.8v5.6l-0.9,0.9c-9-0.4-17.9-0.5-26.7-0.5c-10.9,0-19.2,0.2-25,0.6l-0.9-0.9v-5.6l0.9-0.9
			c5.9-0.2,9.5-0.6,10.9-1.4c1.2-0.5,1.9-2,2-4.4c0.4-7.9,0.6-16.4,0.6-25.5v-13.1c0-12.2-0.5-19.2-1.4-21c-0.6-1.2-1.9-2-3.9-2.3
			c-0.7-0.1-3.4-0.3-8-0.5l-0.9-0.9v-5.1l0.9-1c11-1,22.5-3.6,34.7-7.6l2,1.2l-0.2,17.9c3.8-4.4,8.4-9.5,13.7-15.4
			c2.5-2.4,5.9-3.7,10.2-3.7C500.1,404,502.3,404.4,504.1,405.1z"/>
		<path class="st1" d="M561.4,493.2l-0.9,0.9c-5.8-0.4-14.1-0.6-25.1-0.6c-10.9,0-19.2,0.2-25,0.6l-0.9-0.9v-5.6l0.9-0.9
			c5.9-0.2,9.5-0.6,10.9-1.4c1.2-0.5,1.9-2,2-4.4c0.4-7.9,0.6-16.4,0.6-25.5v-13.1c0-11.8-0.5-18.8-1.4-21c-0.5-1.2-1.8-2-3.9-2.3
			c-0.7-0.1-3.4-0.3-8-0.5l-0.9-0.9v-5.1l0.9-1c11.7-1,23.5-3.6,35.4-7.6l1.9,1.2c-0.8,11.1-1.2,20.5-1.2,28.1v29.2
			c0,4.5,0.2,10.6,0.6,18.6c0.1,2.4,0.8,3.8,2,4.4c1.4,0.7,5,1.2,10.9,1.4l1,0.9V493.2z M548.8,373.8c0,3.9-1.4,7.2-4.1,10
			c-2.7,2.8-6,4.2-9.9,4.2c-3.9,0-7.2-1.4-10-4.2c-2.7-2.8-4.1-6.1-4.1-10c0-4,1.4-7.4,4.2-10.2c2.8-2.7,6.1-4.1,9.9-4.1
			c3.8,0,7.1,1.4,9.8,4.1C547.4,366.4,548.8,369.8,548.8,373.8z"/>
		<path class="st1" d="M656,492.9l-1,1c-5.1-0.3-11-0.5-17.7-0.5c-5.2,0-10.2,0.2-14.9,0.5l-0.8-1l0.8-12.3l-17.7,13.5
			c-1.4,1-3.4,1.7-6,1.9c-1,0.1-2.3,0.2-3.7,0.2c-6.8,0-12-2-15.6-6.1c-3.6-4.1-5.4-9.7-5.4-16.9c0-9.5,3-16.2,9.1-20.2
			c6.5-4.3,19.7-8.2,39.4-11.7c0-9.7-2.6-16.2-7.7-19.5c-3.1-2-6.8-3-11.2-3c-4.8,0-8.5,1-11.2,2.9l-3.5,8.5l-1.2,0.6l-4.7-1.1
			l-0.6-1.3l0.5-10.8c10.1-7.4,17.6-11.6,22.7-12.6c2.1-0.4,4.9-0.6,8.3-0.6c12,0,20.6,3.1,25.7,9.4c3.7,4.6,5.6,11.6,5.6,21
			c0,2.3-0.1,6-0.3,11.2c-0.3,8.5-0.5,14.2-0.5,17.1c0,9.2,0.2,15.1,0.5,17.6c0.3,2.5,1,4.1,2.1,4.8c1.1,0.7,3.8,1.1,8.1,1.2l0.9,1
			V492.9z M622.4,471.6v-22.5c-10.1,2.2-16.8,4.6-20.3,7.1c-3.5,2.5-5.3,6.4-5.3,11.6c0,8.3,3.6,12.4,10.9,12.4
			C613.8,480.2,618.7,477.3,622.4,471.6z"/>
		<path class="st1" d="M822.6,493l-0.9,1c-3.5-0.4-9.8-0.5-18.8-0.5c-7.5,0-12.8,0.2-16,0.5l-1.3-1.7c1-15.2,1.5-26.2,1.5-33.2v-8.3
			c0-9-0.3-15-0.8-18c-0.7-3.7-2.2-6.6-4.6-8.8c-2.4-2.2-5.6-3.3-9.7-3.3c-4.6,0-8.4,1.3-11.4,3.8c-3,2.6-4.6,5.8-4.6,9.8v27.3
			l0.4,14.4c0.1,3.9,0.5,6.5,1,7.7c0.4,0.8,1.2,1.4,2.5,1.7c1.1,0.3,4.1,0.7,8.9,1.2l1,0.9v5.5l-1.1,1c-7.4-0.4-14.8-0.5-22.4-0.5
			c-9.4,0-17.4,0.2-24.1,0.5l-1-1v-5.4l0.9-1.1c3.8-0.4,6.5-0.7,8-1c1.1-0.2,1.9-1.2,2.4-2.7c0.4-1.2,0.6-4.5,0.6-10.2l0.2-29.5
			c0-6.8-0.5-11.7-1.6-14.6c-0.9-2.3-2.5-4.2-4.8-5.8c-2.1-1.4-4.9-2.1-8.4-2.1c-5.5,0-9.8,1.8-13.1,5.5c-1.5,1.7-2.4,3.1-2.7,4.1
			c-0.3,1-0.4,3.3-0.4,6.9v19.8c0,3.9,0.1,9,0.4,15.2c0.2,6.4,0.5,10.1,0.7,11.2c0.4,1.3,1.4,2.1,3.1,2.6c1.7,0.5,4.2,0.7,7.6,0.8
			l0.9,0.9v5.6l-0.9,0.9c-5.2-0.4-12.9-0.5-23.2-0.5c-10.9,0-19.2,0.2-25,0.6l-0.9-0.9v-5.6l0.9-0.9c5.9-0.2,9.5-0.6,10.9-1.4
			c1.2-0.5,1.9-2,2-4.4c0.4-7.9,0.6-16.4,0.6-25.5v-13.1c0-12.2-0.5-19.2-1.4-21c-0.6-1.2-1.9-2-3.9-2.3c-0.7-0.1-3.4-0.3-8-0.5
			l-0.9-0.9v-5.1l0.9-1c11-1,22.5-3.6,34.7-7.6l2,1.2l-0.2,14.5l16.3-13.2c3-1.3,6.5-2,10.6-2c7,0,12.5,1.1,16.4,3.4
			c3.9,2.3,7,6.3,9.4,12l16.6-13.4c3-1.4,6.6-2.1,10.9-2.1c11.8,0,19.9,4.3,24.5,12.8c2,3.8,3,9.6,3,17.4c0,3.2,0,5.6-0.1,7.2
			l-0.1,3.5c-0.1,2.9-0.2,4.9-0.2,5.9V463c0,9.2,0.2,15.1,0.5,17.6c0.3,2.5,1,4.1,2.1,4.8c1.1,0.7,4.2,1.1,9.3,1.2l0.9,1V493z"/>
	</g>
</g>
<g>
	<g>
		<path class="st1" d="M228.6,506l0.2-0.2c3.5,0.2,5.8,0.2,7.1,0.2l14.1-0.3c4,0,7.3,0.4,9.9,1.1c2.6,0.8,4.9,2.1,6.9,3.9
			c2,1.9,3.5,4,4.5,6.5c1,2.5,1.6,5.1,1.6,7.9c0,2.7-0.5,5.4-1.4,8s-2.3,5-4,7.1c-1.7,2.1-3.7,3.8-5.9,5.1c-2.2,1.3-4.4,2.1-6.7,2.6
			c-2.2,0.4-4.5,0.6-6.8,0.6c-1.6,0-4.5-0.1-8.9-0.2c-1.4,0-2.4-0.1-2.8-0.1c-1.4,0-3.1,0.1-5,0.2l-0.2-0.2v-1l0.2-0.3
			c1.2-0.6,1.9-1,2-1.1c0.2-0.2,0.3-1.9,0.4-5.3c0.1-3.4,0.2-5.9,0.2-7.7v-11.1l0-6.8c0-1.5,0-2.7-0.1-3.6c0-0.9-0.1-1.6-0.2-2
			c-0.1-0.4-0.2-0.7-0.3-0.8c-0.1-0.2-0.3-0.3-0.6-0.4c-0.3-0.1-0.8-0.2-1.5-0.3l-2.3-0.2l-0.2-0.2V506z M239.8,545.3
			c2,0.4,4.4,0.6,7.1,0.6c4.7,0,8.4-0.8,11.2-2.3c2.8-1.6,4.9-3.9,6.3-7s2.1-6.5,2.1-10.4c0-5.7-1.5-10.1-4.5-13.2
			c-3-3.1-7.8-4.7-14.3-4.7c-2.7,0-5.3,0.2-7.8,0.6c-0.2,3.3-0.2,7-0.2,11.1v9.5l0.1,8.9C239.6,540.1,239.6,542.4,239.8,545.3z"/>
		<path class="st1" d="M334,505.8l3.8,0.1c2.5,0.1,4.1,0.1,4.9,0.1c0.7,0,3.6-0.1,8.6-0.2l0.2,0.2v1.5l-0.2,0.2
			c-1.4,0-2.5,0.1-3.2,0.2c-0.8,0.1-1.3,0.2-1.6,0.5c-0.3,0.2-0.6,0.7-0.7,1.6c-0.1,0.8-0.2,1.9-0.2,3.4l-0.1,6.9v13.9l0,5.9
			c0,2.3,0.1,3.7,0.2,4.4s0.2,1.1,0.4,1.3c0.2,0.2,0.6,0.4,1.1,0.6c0.5,0.2,1.9,0.3,4,0.3l0.2,0.2v1.5l-0.2,0.2
			c-0.1,0-1.9-0.1-5.3-0.2c-1.4,0-2.5-0.1-3.3-0.1c-0.6,0-3.5,0.1-8.6,0.2l-0.2-0.2v-1.5l0.2-0.2c1.9-0.1,3.1-0.2,3.7-0.3
			c0.6-0.1,1-0.3,1.2-0.5c0.2-0.2,0.4-0.6,0.5-1.2c0.1-0.6,0.2-2,0.2-4.2l0-6.4v-13.9l-0.1-5.9c0-2.3-0.1-3.8-0.2-4.4
			c-0.1-0.7-0.2-1.1-0.4-1.3c-0.2-0.2-0.6-0.4-1.1-0.5c-0.5-0.1-1.9-0.3-4-0.3l-0.2-0.2V506L334,505.8z"/>
		<path class="st1" d="M454.9,531.9v0.9l-0.1,0.4l-1.5,0.9c-0.4,0.2-0.6,0.4-0.6,0.5c-0.1,0.1-0.1,0.7-0.2,1.8
			c-0.1,1.1-0.1,2.4-0.1,3.9c0,1.7,0.1,3.6,0.3,5.7l-0.2,0.3c-5.5,2.1-11.2,3.2-17,3.2c-4.5,0-8.5-0.8-12.1-2.5
			c-3.6-1.7-6.4-4.2-8.6-7.5c-2.1-3.3-3.2-7.2-3.2-11.8c0-6.9,2.4-12.5,7.1-16.6c4.7-4.1,10.9-6.1,18.6-6.1c5.6,0,10.7,1,15.2,2.9
			l0.2,0.3c-0.4,1.3-0.8,4.2-1.3,8.5l-0.2,0.2h-1.4l-0.2-0.2l-0.1-3.2c-0.1-1-0.1-1.7-0.2-1.8c-0.1-0.2-0.3-0.4-0.6-0.7
			c-0.4-0.3-1.3-0.8-2.8-1.4c-1.5-0.6-3-1.1-4.5-1.4c-1.5-0.3-3.1-0.4-4.8-0.4c-3.7,0-6.9,0.8-9.8,2.3c-2.8,1.5-5,3.8-6.4,6.7
			s-2.2,6.2-2.2,9.7c0,3.7,0.8,7.1,2.3,10.3c1.5,3.2,3.8,5.7,6.7,7.5c2.9,1.8,6.3,2.7,10.1,2.7c1.7,0,3.4-0.2,5.1-0.5
			c1.7-0.3,3.2-0.8,4.3-1.4c0.2-0.6,0.3-1.9,0.3-3.9v-3.3c0-1.6-0.1-2.6-0.3-3c-0.2-0.4-0.7-0.7-1.5-0.8c-0.8-0.2-2.5-0.3-5.1-0.3
			l-0.3-0.3v-1.3l0.3-0.3l1.8,0.1c3.2,0.1,5.7,0.2,7.7,0.2c1.1,0,2.8-0.1,5-0.2L454.9,531.9z"/>
		<path class="st1" d="M515.3,505.8l3.8,0.1c2.5,0.1,4.1,0.1,4.8,0.1c0.7,0,3.6-0.1,8.6-0.2l0.2,0.2v1.5l-0.2,0.2
			c-1.4,0-2.5,0.1-3.2,0.2c-0.8,0.1-1.3,0.2-1.6,0.5c-0.3,0.2-0.6,0.7-0.7,1.6c-0.1,0.8-0.2,1.9-0.2,3.4l-0.1,6.9v13.9l0,5.9
			c0,2.3,0.1,3.7,0.2,4.4c0.1,0.7,0.2,1.1,0.4,1.3c0.2,0.2,0.6,0.4,1.1,0.6c0.5,0.2,1.9,0.3,4,0.3l0.2,0.2v1.5l-0.2,0.2
			c-0.1,0-1.9-0.1-5.3-0.2c-1.4,0-2.5-0.1-3.3-0.1c-0.6,0-3.5,0.1-8.6,0.2l-0.2-0.2v-1.5l0.2-0.2c1.9-0.1,3.1-0.2,3.7-0.3
			c0.6-0.1,1-0.3,1.3-0.5c0.2-0.2,0.4-0.6,0.5-1.2c0.1-0.6,0.2-2,0.2-4.2l0-6.4v-13.9l-0.1-5.9c0-2.3-0.1-3.8-0.2-4.4
			c-0.1-0.7-0.2-1.1-0.4-1.3c-0.2-0.2-0.6-0.4-1.1-0.5c-0.5-0.1-1.9-0.3-4-0.3l-0.2-0.2V506L515.3,505.8z"/>
		<path class="st1" d="M627.5,505.8l0.3,0.3c-0.2,1.8-0.3,5-0.3,9.5l-0.2,0.2h-1.4l-0.2-0.3l-0.3-2.8c-0.2-1.5-0.3-2.4-0.4-2.7
			c-0.1-0.3-0.2-0.6-0.4-0.7c-0.2-0.2-0.9-0.3-2-0.4c-1.1-0.1-2.3-0.2-3.7-0.2h-5.7c-0.2,4.5-0.2,7.2-0.2,7.9v17.6l0.1,5.9
			c0,2.3,0.1,3.7,0.2,4.4c0.1,0.7,0.2,1.1,0.4,1.3c0.2,0.2,0.6,0.4,1.1,0.5c0.5,0.2,1.9,0.3,4,0.3l0.2,0.2v1.5l-0.2,0.2
			c-5.1-0.2-8-0.2-8.6-0.2c-0.6,0-3.5,0.1-8.6,0.2l-0.2-0.2v-1.5l0.2-0.2c1.9-0.1,3.1-0.2,3.8-0.3c0.6-0.1,1-0.3,1.2-0.5
			c0.2-0.2,0.4-0.6,0.5-1.2c0.1-0.6,0.2-2,0.2-4.2l0.1-6.4v-17.6c0-0.3-0.1-2.9-0.2-7.9h-4.5c-1.8,0-3.4,0-4.8,0.1
			c-1.3,0.1-2.1,0.3-2.3,0.6c-0.2,0.3-0.4,1.4-0.6,3.2l-0.3,2.8l-0.3,0.3h-1.4l-0.2-0.2c0-4.8-0.1-8-0.3-9.5l0.3-0.3
			c3.5,0.2,9.3,0.2,17.4,0.2C618.3,506,624.1,505.9,627.5,505.8z"/>
		<path class="st1" d="M683,548.6l-0.3-0.2v-1.6l0.3-0.2c1.5,0,2.4-0.1,2.8-0.2c0.4-0.1,0.8-0.4,1.1-0.8c0.3-0.4,1-1.7,2-3.8
			l3.2-6.9l8.2-18.6c1.5-3.6,3.1-7.3,4.6-10.9h2l12.9,30.2l1.7,4c0.5,1.1,1.1,2.4,1.7,3.7c0.7,1.3,1.1,2.1,1.4,2.4
			c0.3,0.2,0.6,0.4,0.9,0.6c0.4,0.1,1.2,0.2,2.5,0.2l0.2,0.2v1.6l-0.2,0.2c-2.1-0.2-4-0.3-5.8-0.3c-3.3,0.1-6.7,0.2-10,0.3l-0.2-0.2
			v-1.6l0.2-0.2c2.2,0,3.7-0.1,4.2-0.3c0.6-0.2,0.8-0.5,0.8-1c0-0.4-0.1-1-0.4-1.7l-3.7-9.2h-17.4l-3.3,7.7c-0.6,1.4-0.9,2.4-0.9,3
			c0,0.5,0.3,0.9,0.8,1.1c0.5,0.2,1.9,0.4,4.1,0.4l0.3,0.2v1.6l-0.2,0.2c-2.6-0.2-4.9-0.2-6.8-0.2
			C687.5,548.3,685.3,548.4,683,548.6z M696.8,531.7H712l-7.6-18.2L696.8,531.7z"/>
		<path class="st1" d="M787.6,506l0.2-0.2c5,0.2,7.9,0.2,8.6,0.2c0.7,0,3.6-0.1,8.6-0.2l0.2,0.2v1.5l-0.2,0.2
			c-1.4,0-2.5,0.1-3.2,0.2c-0.8,0.1-1.3,0.2-1.6,0.5c-0.3,0.2-0.6,0.7-0.7,1.6c-0.1,0.8-0.2,1.9-0.2,3.4l-0.1,6.9v13.3
			c0,3.3,0,5.7,0.1,7l0.1,5.2h6.1c4.9,0,8-0.1,9.2-0.2c1.2-0.1,2.4-0.4,3.5-0.9c0.2-0.5,0.5-1.7,0.9-3.5c0.4-1.8,0.6-2.9,0.6-3.1
			l0.3-0.2h1.5l0.2,0.2c-0.2,0.8-0.3,2.4-0.5,4.7c-0.2,2.3-0.3,4.2-0.3,5.6l-0.2,0.2c-3.8-0.1-8.8-0.2-15-0.2l-8.8-0.1
			c-2,0-4.1,0.1-6.1,0.2l-0.2-0.2v-1l0.2-0.3c1.2-0.6,1.9-1,2-1.2c0.1-0.1,0.2-1.4,0.4-3.9c0.1-2.4,0.2-5.4,0.2-8.9v-12.9l-0.1-5.9
			c0-2.3-0.1-3.8-0.2-4.4c-0.1-0.7-0.2-1.1-0.4-1.3c-0.2-0.2-0.6-0.4-1.1-0.5c-0.5-0.1-1.9-0.3-4-0.3l-0.2-0.2V506z"/>
	</g>
</g>
<g>
	<polygon class="st2" points="203.8,21.8 107.9,117.7 11.9,213.7 11.9,21.8 53.4,63.3 31.7,101.4 77,56.1 111.3,21.8 	"/>
	
		<linearGradient id="SVGID_00000071527700123214098040000002855913430342977204_" gradientUnits="userSpaceOnUse" x1="19.1238" y1="95.8519" x2="56.2299" y2="12.5103">
		<stop  offset="0" style="stop-color:#864433"/>
		<stop  offset="0.3195" style="stop-color:#B76733"/>
		<stop  offset="0.6169" style="stop-color:#DE8233"/>
		<stop  offset="0.8536" style="stop-color:#F69333"/>
		<stop  offset="1" style="stop-color:#FF9933"/>
	</linearGradient>
	<polygon style="fill:url(#SVGID_00000071527700123214098040000002855913430342977204_);" points="77,21.8 77,56.1 31.7,101.4 
		53.4,63.3 11.9,21.8 	"/>
	<polygon class="st2" points="203.8,213.7 111.7,213.7 61.8,163.8 107.9,117.7 	"/>
	
		<linearGradient id="SVGID_00000029731740849366875690000002948523382660511889_" gradientUnits="userSpaceOnUse" x1="61.8021" y1="163.7868" x2="61.8021" y2="163.7868">
		<stop  offset="0" style="stop-color:#864433"/>
		<stop  offset="0.3195" style="stop-color:#B76733"/>
		<stop  offset="0.6169" style="stop-color:#DE8233"/>
		<stop  offset="0.8536" style="stop-color:#F69333"/>
		<stop  offset="1" style="stop-color:#FF9933"/>
	</linearGradient>
	<path style="fill:url(#SVGID_00000029731740849366875690000002948523382660511889_);" d="M61.8,163.8"/>
	
		<linearGradient id="SVGID_00000145057602032504031500000006297091783114939523_" gradientUnits="userSpaceOnUse" x1="72.8557" y1="135.2355" x2="115.9744" y2="135.2355">
		<stop  offset="0" style="stop-color:#864433"/>
		<stop  offset="0.3195" style="stop-color:#B76733"/>
		<stop  offset="0.6169" style="stop-color:#DE8233"/>
		<stop  offset="0.8536" style="stop-color:#F69333"/>
		<stop  offset="1" style="stop-color:#FF9933"/>
	</linearGradient>
	<polyline style="fill:url(#SVGID_00000145057602032504031500000006297091783114939523_);" points="72.9,152.7 107.9,117.7 
		107.9,117.7 116,125.9 	"/>
</g>
<g>
	<g>
		<path class="st1" d="M335.8,157.6l-0.9,0.9c-4.1-0.2-9.1-0.4-14.9-0.4c-5.4,0-10.8,0.1-16.1,0.4c-3.4-6.2-11.7-16.6-24.8-31
			c-6.9-7.6-11.3-12.1-13.2-13.4l0.6,31.3c0.1,2.4,0.8,3.8,2,4.4c1.4,0.7,5,1.2,10.9,1.4l1,0.9v5.6l-0.9,0.9
			c-5.8-0.4-14.1-0.6-25.1-0.6c-10.9,0-19.2,0.2-25,0.6l-0.9-0.9v-5.6l0.9-0.9c5.9-0.2,9.5-0.6,10.9-1.4c1.2-0.5,1.9-2,2-4.4
			c0.4-7.9,0.6-21.8,0.6-41.6V73.1c0-12.8-0.2-23.2-0.6-31.1c-0.1-2.3-0.8-3.7-2-4.4c-1.2-0.7-4.8-1.1-10.6-1.3l-0.9-1v-5l0.9-1
			c11.8-1.3,23.6-3.8,35.4-7.6l1.9,1.1c0,1.6-0.1,4.7-0.3,9.1c-0.6,14.6-0.9,30.7-0.9,48.4v29.9l9.1-7.4c4-3.2,9.5-8.6,16.6-16.2
			l9.5-10.1c1.8-1.9,3.2-3.5,4.2-4.9c5.2,0.2,9.4,0.3,12.6,0.3c4.1,0,7.8-0.1,11.1-0.3l0.9,0.9v5.5l-0.9,0.9l-6.7,0.4
			c-2.7,0.1-5.5,1.2-8.3,3.2c-1.1,0.8-3.4,2.6-7,5.5l-7.7,6.3l-2.7,2.6l-7.8,7l19.6,22.9c12.4,14.5,19.9,22.4,22.4,23.6
			c1.3,0.6,2.6,0.9,4,0.9l0.9,1V157.6z"/>
		<path class="st1" d="M427.1,157.4l-1,1c-5.1-0.3-11-0.5-17.6-0.5c-5.2,0-10.2,0.2-14.9,0.5l-0.8-1l0.8-12.3l-17.7,13.5
			c-1.4,1-3.4,1.7-6,1.9c-1,0.1-2.3,0.2-3.7,0.2c-6.8,0-12-2-15.6-6.1c-3.6-4.1-5.4-9.7-5.4-16.9c0-9.5,3-16.2,9.1-20.2
			c6.5-4.3,19.7-8.2,39.4-11.7c0-9.7-2.6-16.2-7.7-19.5c-3.1-2-6.8-3-11.2-3c-4.8,0-8.5,1-11.2,2.9l-3.5,8.5l-1.2,0.6l-4.7-1.1
			l-0.6-1.3l0.5-10.8c10.1-7.4,17.6-11.6,22.7-12.6c2.1-0.4,4.9-0.6,8.3-0.6c12,0,20.6,3.1,25.7,9.4c3.7,4.6,5.6,11.6,5.6,21
			c0,2.3-0.1,6-0.3,11.2c-0.3,8.5-0.5,14.2-0.5,17.1c0,9.2,0.2,15.1,0.5,17.6c0.3,2.5,1,4.1,2.1,4.8c1.1,0.7,3.8,1.1,8.1,1.2l0.9,1
			V157.4z M393.5,136.1v-22.5c-10.1,2.2-16.8,4.6-20.3,7.1c-3.5,2.5-5.3,6.4-5.3,11.6c0,8.3,3.6,12.4,10.9,12.4
			C384.9,144.7,389.8,141.8,393.5,136.1z"/>
		<path class="st1" d="M504.1,69.6l-0.6,16.3c-0.1,2.7-0.2,5.7-0.4,9.1l-3.8,1.2c-2.9-4.1-6.8-6.2-11.9-6.2c-4.6,0-8.4,1.8-11.3,5.5
			c-1.8,2.3-2.7,5.6-2.7,10v21.4c0,4.5,0.2,10.6,0.6,18.6c0.1,2.3,0.8,3.7,1.9,4.4c1.2,0.7,5.4,1.1,12.7,1.4l0.9,0.8v5.6l-0.9,0.9
			c-9-0.4-17.9-0.5-26.7-0.5c-10.9,0-19.2,0.2-25,0.6l-0.9-0.9v-5.6l0.9-0.9c5.9-0.2,9.5-0.6,10.9-1.4c1.2-0.5,1.9-2,2-4.4
			c0.4-7.9,0.6-16.4,0.6-25.5v-13.1c0-12.2-0.5-19.2-1.4-21c-0.6-1.2-1.9-2-3.9-2.3c-0.7-0.1-3.4-0.3-8-0.5l-0.9-0.9V77l0.9-1
			c11-1,22.5-3.6,34.7-7.6l2,1.2l-0.2,17.9c3.8-4.4,8.4-9.5,13.7-15.4c2.5-2.4,5.9-3.7,10.2-3.7C500.1,68.5,502.3,68.8,504.1,69.6z"
			/>
		<path class="st1" d="M561.4,157.6l-0.9,0.9c-5.8-0.4-14.1-0.6-25.1-0.6c-10.9,0-19.2,0.2-25,0.6l-0.9-0.9v-5.6l0.9-0.9
			c5.9-0.2,9.5-0.6,10.9-1.4c1.2-0.5,1.9-2,2-4.4c0.4-7.9,0.6-16.4,0.6-25.5v-13.1c0-11.8-0.5-18.8-1.4-21c-0.5-1.2-1.8-2-3.9-2.3
			c-0.7-0.1-3.4-0.3-8-0.5l-0.9-0.9V77l0.9-1c11.7-1,23.5-3.6,35.4-7.6l1.9,1.2c-0.8,11.1-1.2,20.5-1.2,28.1v29.2
			c0,4.5,0.2,10.6,0.6,18.6c0.1,2.4,0.8,3.8,2,4.4c1.4,0.7,5,1.2,10.9,1.4l1,0.9V157.6z M548.8,38.3c0,3.9-1.4,7.2-4.1,10
			c-2.7,2.8-6,4.2-9.9,4.2c-3.9,0-7.2-1.4-10-4.2c-2.7-2.8-4.1-6.1-4.1-10c0-4,1.4-7.4,4.2-10.2c2.8-2.7,6.1-4.1,9.9-4.1
			c3.8,0,7.1,1.4,9.8,4.1C547.4,30.9,548.8,34.3,548.8,38.3z"/>
		<path class="st1" d="M656,157.4l-1,1c-5.1-0.3-11-0.5-17.7-0.5c-5.2,0-10.2,0.2-14.9,0.5l-0.8-1l0.8-12.3l-17.7,13.5
			c-1.4,1-3.4,1.7-6,1.9c-1,0.1-2.3,0.2-3.7,0.2c-6.8,0-12-2-15.6-6.1c-3.6-4.1-5.4-9.7-5.4-16.9c0-9.5,3-16.2,9.1-20.2
			c6.5-4.3,19.7-8.2,39.4-11.7c0-9.7-2.6-16.2-7.7-19.5c-3.1-2-6.8-3-11.2-3c-4.8,0-8.5,1-11.2,2.9l-3.5,8.5l-1.2,0.6l-4.7-1.1
			l-0.6-1.3l0.5-10.8c10.1-7.4,17.6-11.6,22.7-12.6c2.1-0.4,4.9-0.6,8.3-0.6c12,0,20.6,3.1,25.7,9.4c3.7,4.6,5.6,11.6,5.6,21
			c0,2.3-0.1,6-0.3,11.2c-0.3,8.5-0.5,14.2-0.5,17.1c0,9.2,0.2,15.1,0.5,17.6c0.3,2.5,1,4.1,2.1,4.8c1.1,0.7,3.8,1.1,8.1,1.2l0.9,1
			V157.4z M622.4,136.1v-22.5c-10.1,2.2-16.8,4.6-20.3,7.1c-3.5,2.5-5.3,6.4-5.3,11.6c0,8.3,3.6,12.4,10.9,12.4
			C613.8,144.7,618.7,141.8,622.4,136.1z"/>
		<path class="st1" d="M822.6,157.5l-0.9,1c-3.5-0.4-9.8-0.5-18.8-0.5c-7.5,0-12.8,0.2-16,0.5l-1.3-1.7c1-15.2,1.5-26.2,1.5-33.2
			v-8.3c0-9-0.3-15-0.8-18c-0.7-3.7-2.2-6.6-4.6-8.8c-2.4-2.2-5.6-3.3-9.7-3.3c-4.6,0-8.4,1.3-11.4,3.8c-3,2.6-4.6,5.8-4.6,9.8V126
			l0.4,14.4c0.1,3.9,0.5,6.5,1,7.7c0.4,0.8,1.2,1.4,2.5,1.7c1.1,0.3,4.1,0.7,8.9,1.2l1,0.9v5.5l-1.1,1c-7.4-0.4-14.8-0.5-22.4-0.5
			c-9.4,0-17.4,0.2-24.1,0.5l-1-1v-5.4l0.9-1.1c3.8-0.4,6.5-0.7,8-1c1.1-0.2,1.9-1.2,2.4-2.7c0.4-1.2,0.6-4.5,0.6-10.2l0.2-29.5
			c0-6.8-0.5-11.7-1.6-14.6c-0.9-2.3-2.5-4.2-4.8-5.8c-2.1-1.4-4.9-2.1-8.4-2.1c-5.5,0-9.8,1.8-13.1,5.5c-1.5,1.7-2.4,3.1-2.7,4.1
			c-0.3,1-0.4,3.3-0.4,6.9v19.8c0,3.9,0.1,9,0.4,15.2c0.2,6.4,0.5,10.1,0.7,11.2c0.4,1.3,1.4,2.1,3.1,2.6c1.7,0.5,4.2,0.7,7.6,0.8
			l0.9,0.9v5.6l-0.9,0.9c-5.2-0.4-12.9-0.5-23.2-0.5c-10.9,0-19.2,0.2-25,0.6l-0.9-0.9v-5.6l0.9-0.9c5.9-0.2,9.5-0.6,10.9-1.4
			c1.2-0.5,1.9-2,2-4.4c0.4-7.9,0.6-16.4,0.6-25.5v-13.1c0-12.2-0.5-19.2-1.4-21c-0.6-1.2-1.9-2-3.9-2.3c-0.7-0.1-3.4-0.3-8-0.5
			l-0.9-0.9V77l0.9-1c11-1,22.5-3.6,34.7-7.6l2,1.2l-0.2,14.5l16.3-13.2c3-1.3,6.5-2,10.6-2c7,0,12.5,1.1,16.4,3.4
			c3.9,2.3,7,6.3,9.4,12l16.6-13.4c3-1.4,6.6-2.1,10.9-2.1c11.8,0,19.9,4.3,24.5,12.8c2,3.8,3,9.6,3,17.4c0,3.2,0,5.6-0.1,7.2
			l-0.1,3.5c-0.1,2.9-0.2,4.9-0.2,5.9v11.9c0,9.2,0.2,15.1,0.5,17.6c0.3,2.5,1,4.1,2.1,4.8c1.1,0.7,4.2,1.1,9.3,1.2l0.9,1V157.5z"/>
	</g>
</g>
<g>
	<g>
		<path class="st1" d="M228.6,170.5l0.2-0.2c3.5,0.2,5.8,0.2,7.1,0.2l14.1-0.3c4,0,7.3,0.4,9.9,1.1c2.6,0.8,4.9,2.1,6.9,3.9
			c2,1.9,3.5,4,4.5,6.5c1,2.5,1.6,5.1,1.6,7.9c0,2.7-0.5,5.4-1.4,8c-0.9,2.7-2.3,5-4,7.1c-1.7,2.1-3.7,3.8-5.9,5.1
			c-2.2,1.3-4.4,2.1-6.7,2.6c-2.2,0.4-4.5,0.6-6.8,0.6c-1.6,0-4.5-0.1-8.9-0.2c-1.4,0-2.4-0.1-2.8-0.1c-1.4,0-3.1,0.1-5,0.2
			l-0.2-0.2v-1l0.2-0.3c1.2-0.6,1.9-1,2-1.1c0.2-0.2,0.3-1.9,0.4-5.3c0.1-3.4,0.2-5.9,0.2-7.7v-11.1l0-6.8c0-1.5,0-2.7-0.1-3.6
			c0-0.9-0.1-1.6-0.2-2c-0.1-0.4-0.2-0.7-0.3-0.8c-0.1-0.2-0.3-0.3-0.6-0.4c-0.3-0.1-0.8-0.2-1.5-0.3l-2.3-0.2l-0.2-0.2V170.5z
			 M239.8,209.8c2,0.4,4.4,0.6,7.1,0.6c4.7,0,8.4-0.8,11.2-2.3c2.8-1.6,4.9-3.9,6.3-7c1.4-3.1,2.1-6.5,2.1-10.4
			c0-5.7-1.5-10.1-4.5-13.2c-3-3.1-7.8-4.7-14.3-4.7c-2.7,0-5.3,0.2-7.8,0.6c-0.2,3.3-0.2,7-0.2,11.1v9.5l0.1,8.9
			C239.6,204.5,239.6,206.9,239.8,209.8z"/>
		<path class="st1" d="M334,170.2l3.8,0.1c2.5,0.1,4.1,0.1,4.9,0.1c0.7,0,3.6-0.1,8.6-0.2l0.2,0.2v1.5l-0.2,0.2
			c-1.4,0-2.5,0.1-3.2,0.2c-0.8,0.1-1.3,0.2-1.6,0.5c-0.3,0.2-0.6,0.7-0.7,1.6c-0.1,0.8-0.2,1.9-0.2,3.4l-0.1,6.9v13.9l0,5.9
			c0,2.3,0.1,3.7,0.2,4.4s0.2,1.1,0.4,1.3c0.2,0.2,0.6,0.4,1.1,0.6c0.5,0.2,1.9,0.3,4,0.3l0.2,0.2v1.5l-0.2,0.2
			c-0.1,0-1.9-0.1-5.3-0.2c-1.4,0-2.5-0.1-3.3-0.1c-0.6,0-3.5,0.1-8.6,0.2l-0.2-0.2v-1.5l0.2-0.2c1.9-0.1,3.1-0.2,3.7-0.3
			c0.6-0.1,1-0.3,1.2-0.5c0.2-0.2,0.4-0.6,0.5-1.2c0.1-0.6,0.2-2,0.2-4.2l0-6.4v-13.9l-0.1-5.9c0-2.3-0.1-3.8-0.2-4.4
			c-0.1-0.7-0.2-1.1-0.4-1.3c-0.2-0.2-0.6-0.4-1.1-0.5c-0.5-0.1-1.9-0.3-4-0.3l-0.2-0.2v-1.5L334,170.2z"/>
		<path class="st1" d="M454.9,196.4v0.9l-0.1,0.4l-1.5,0.9c-0.4,0.2-0.6,0.4-0.6,0.5c-0.1,0.1-0.1,0.7-0.2,1.8
			c-0.1,1.1-0.1,2.4-0.1,3.9c0,1.7,0.1,3.6,0.3,5.7l-0.2,0.3c-5.5,2.1-11.2,3.2-17,3.2c-4.5,0-8.5-0.8-12.1-2.5
			c-3.6-1.7-6.4-4.2-8.6-7.5c-2.1-3.3-3.2-7.2-3.2-11.8c0-6.9,2.4-12.5,7.1-16.6c4.7-4.1,10.9-6.1,18.6-6.1c5.6,0,10.7,1,15.2,2.9
			l0.2,0.3c-0.4,1.3-0.8,4.2-1.3,8.5l-0.2,0.2h-1.4l-0.2-0.2l-0.1-3.2c-0.1-1-0.1-1.7-0.2-1.8c-0.1-0.2-0.3-0.4-0.6-0.7
			c-0.4-0.3-1.3-0.8-2.8-1.4c-1.5-0.6-3-1.1-4.5-1.4c-1.5-0.3-3.1-0.4-4.8-0.4c-3.7,0-6.9,0.8-9.8,2.3c-2.8,1.5-5,3.8-6.4,6.7
			c-1.4,2.9-2.2,6.2-2.2,9.7c0,3.7,0.8,7.1,2.3,10.3c1.5,3.2,3.8,5.7,6.7,7.5c2.9,1.8,6.3,2.7,10.1,2.7c1.7,0,3.4-0.2,5.1-0.5
			c1.7-0.3,3.2-0.8,4.3-1.4c0.2-0.6,0.3-1.9,0.3-3.9v-3.3c0-1.6-0.1-2.6-0.3-3c-0.2-0.4-0.7-0.7-1.5-0.8c-0.8-0.2-2.5-0.3-5.1-0.3
			l-0.3-0.3v-1.3l0.3-0.3l1.8,0.1c3.2,0.1,5.7,0.2,7.7,0.2c1.1,0,2.8-0.1,5-0.2L454.9,196.4z"/>
		<path class="st1" d="M515.3,170.2l3.8,0.1c2.5,0.1,4.1,0.1,4.8,0.1c0.7,0,3.6-0.1,8.6-0.2l0.2,0.2v1.5l-0.2,0.2
			c-1.4,0-2.5,0.1-3.2,0.2c-0.8,0.1-1.3,0.2-1.6,0.5c-0.3,0.2-0.6,0.7-0.7,1.6c-0.1,0.8-0.2,1.9-0.2,3.4l-0.1,6.9v13.9l0,5.9
			c0,2.3,0.1,3.7,0.2,4.4c0.1,0.7,0.2,1.1,0.4,1.3c0.2,0.2,0.6,0.4,1.1,0.6c0.5,0.2,1.9,0.3,4,0.3l0.2,0.2v1.5l-0.2,0.2
			c-0.1,0-1.9-0.1-5.3-0.2c-1.4,0-2.5-0.1-3.3-0.1c-0.6,0-3.5,0.1-8.6,0.2l-0.2-0.2v-1.5l0.2-0.2c1.9-0.1,3.1-0.2,3.7-0.3
			c0.6-0.1,1-0.3,1.3-0.5c0.2-0.2,0.4-0.6,0.5-1.2c0.1-0.6,0.2-2,0.2-4.2l0-6.4v-13.9l-0.1-5.9c0-2.3-0.1-3.8-0.2-4.4
			c-0.1-0.7-0.2-1.1-0.4-1.3c-0.2-0.2-0.6-0.4-1.1-0.5c-0.5-0.1-1.9-0.3-4-0.3l-0.2-0.2v-1.5L515.3,170.2z"/>
		<path class="st1" d="M627.5,170.2l0.3,0.3c-0.2,1.8-0.3,5-0.3,9.5l-0.2,0.2h-1.4l-0.2-0.3l-0.3-2.8c-0.2-1.5-0.3-2.4-0.4-2.7
			c-0.1-0.3-0.2-0.6-0.4-0.7c-0.2-0.2-0.9-0.3-2-0.4c-1.1-0.1-2.3-0.2-3.7-0.2h-5.7c-0.2,4.5-0.2,7.2-0.2,7.9v17.6l0.1,5.9
			c0,2.3,0.1,3.7,0.2,4.4c0.1,0.7,0.2,1.1,0.4,1.3c0.2,0.2,0.6,0.4,1.1,0.5c0.5,0.2,1.9,0.3,4,0.3l0.2,0.2v1.5l-0.2,0.2
			c-5.1-0.2-8-0.2-8.6-0.2c-0.6,0-3.5,0.1-8.6,0.2l-0.2-0.2v-1.5l0.2-0.2c1.9-0.1,3.1-0.2,3.8-0.3c0.6-0.1,1-0.3,1.2-0.5
			c0.2-0.2,0.4-0.6,0.5-1.2c0.1-0.6,0.2-2,0.2-4.2l0.1-6.4v-17.6c0-0.3-0.1-2.9-0.2-7.9h-4.5c-1.8,0-3.4,0-4.8,0.1
			c-1.3,0.1-2.1,0.3-2.3,0.6c-0.2,0.3-0.4,1.4-0.6,3.2l-0.3,2.8l-0.3,0.3h-1.4l-0.2-0.2c0-4.8-0.1-8-0.3-9.5l0.3-0.3
			c3.5,0.2,9.3,0.2,17.4,0.2C618.3,170.5,624.1,170.4,627.5,170.2z"/>
		<path class="st1" d="M683,213.1l-0.3-0.2v-1.6l0.3-0.2c1.5,0,2.4-0.1,2.8-0.2c0.4-0.1,0.8-0.4,1.1-0.8c0.3-0.4,1-1.7,2-3.8
			l3.2-6.9l8.2-18.6c1.5-3.6,3.1-7.3,4.6-10.9h2l12.9,30.2l1.7,4c0.5,1.1,1.1,2.4,1.7,3.7c0.7,1.3,1.1,2.1,1.4,2.4
			c0.3,0.2,0.6,0.4,0.9,0.6c0.4,0.1,1.2,0.2,2.5,0.2l0.2,0.2v1.6l-0.2,0.2c-2.1-0.2-4-0.3-5.8-0.3c-3.3,0.1-6.7,0.2-10,0.3l-0.2-0.2
			v-1.6l0.2-0.2c2.2,0,3.7-0.1,4.2-0.3c0.6-0.2,0.8-0.5,0.8-1c0-0.4-0.1-1-0.4-1.7l-3.7-9.2h-17.4l-3.3,7.7c-0.6,1.4-0.9,2.4-0.9,3
			c0,0.5,0.3,0.9,0.8,1.1c0.5,0.2,1.9,0.4,4.1,0.4l0.3,0.2v1.6l-0.2,0.2c-2.6-0.2-4.9-0.2-6.8-0.2
			C687.5,212.8,685.3,212.9,683,213.1z M696.8,196.2H712l-7.6-18.2L696.8,196.2z"/>
		<path class="st1" d="M787.6,170.5l0.2-0.2c5,0.2,7.9,0.2,8.6,0.2c0.7,0,3.6-0.1,8.6-0.2l0.2,0.2v1.5l-0.2,0.2
			c-1.4,0-2.5,0.1-3.2,0.2c-0.8,0.1-1.3,0.2-1.6,0.5c-0.3,0.2-0.6,0.7-0.7,1.6c-0.1,0.8-0.2,1.9-0.2,3.4l-0.1,6.9V198
			c0,3.3,0,5.7,0.1,7l0.1,5.2h6.1c4.9,0,8-0.1,9.2-0.2c1.2-0.1,2.4-0.4,3.5-0.9c0.2-0.5,0.5-1.7,0.9-3.5c0.4-1.8,0.6-2.9,0.6-3.1
			l0.3-0.2h1.5l0.2,0.2c-0.2,0.8-0.3,2.4-0.5,4.7c-0.2,2.3-0.3,4.2-0.3,5.6l-0.2,0.2c-3.8-0.1-8.8-0.2-15-0.2l-8.8-0.1
			c-2,0-4.1,0.1-6.1,0.2l-0.2-0.2v-1l0.2-0.3c1.2-0.6,1.9-1,2-1.2c0.1-0.1,0.2-1.4,0.4-3.9c0.1-2.4,0.2-5.4,0.2-8.9v-12.9l-0.1-5.9
			c0-2.3-0.1-3.8-0.2-4.4c-0.1-0.7-0.2-1.1-0.4-1.3c-0.2-0.2-0.6-0.4-1.1-0.5c-0.5-0.1-1.9-0.3-4-0.3l-0.2-0.2V170.5z"/>
	</g>
</g>
</svg>
